<svg version="1.1" xmlns="http://www.w3.org/2000/svg" viewBox="0 0 839.8208802146211 354.584175239185" width="839.8208802146211" height="354.584175239185">
  <!-- svg-source:excalidraw -->
  
  <defs>
    <style class="style-fonts">
      @font-face {
        font-family: "Virgil";
        src: url("https://excalidraw.com/Virgil.woff2");
      }
      @font-face {
        font-family: "Cascadia";
        src: url("https://excalidraw.com/Cascadia.woff2");
      }
      @font-face {
        font-family: "Assistant";
        src: url("https://excalidraw.com/Assistant-Regular.woff2");
      }
    </style>
    
  </defs>
  <g stroke-linecap="round" transform="translate(425.08755044167185 151) rotate(0 106 25)"><path d="M12.5 0 C87.23 -2.17, 162.31 -2.06, 199.5 0 M12.5 0 C65.25 2.57, 116.37 1.41, 199.5 0 M199.5 0 C205.91 -1.37, 213.43 6.05, 212 12.5 M199.5 0 C206.89 -0.56, 210.24 2.94, 212 12.5 M212 12.5 C211.77 19.88, 209.91 27.18, 212 37.5 M212 12.5 C211.47 22.34, 212.36 30.98, 212 37.5 M212 37.5 C210.03 44.59, 207.2 49.68, 199.5 50 M212 37.5 C214.25 45.96, 206.07 50.82, 199.5 50 M199.5 50 C124.6 51.62, 51.72 50.49, 12.5 50 M199.5 50 C134.05 52.41, 71.17 50.71, 12.5 50 M12.5 50 C2.94 51.94, -1.57 45.75, 0 37.5 M12.5 50 C2.56 51.94, -0.21 45.68, 0 37.5 M0 37.5 C1.56 30.39, -1.38 22.37, 0 12.5 M0 37.5 C-0.47 27.66, -0.31 17.84, 0 12.5 M0 12.5 C0.99 3.04, 5.34 1.9, 12.5 0 M0 12.5 C1.18 3.89, 5.56 1.92, 12.5 0" stroke="var(--fonte)" stroke-width="2" fill="none"></path></g><g stroke-linecap="round"><g transform="translate(628.0875504416719 151) rotate(0 59 9.5)"><path d="M0.43 1.11 C20.2 4.45, 99.27 15.99, 118.72 19.11 M-0.8 0.65 C18.87 4.29, 98.09 17.82, 118.15 20.71" stroke="var(--fonte)" stroke-width="2" fill="none"></path></g></g><mask></mask><g stroke-linecap="round"><g transform="translate(630.0875504416719 201) rotate(0 59.5 -15.5)"><path d="M0.95 0.1 C20.63 -4.96, 98.36 -26.05, 118.19 -31.34 M-0.02 -0.89 C20.04 -5.69, 100.53 -25.02, 120.47 -29.98" stroke="var(--fonte)" stroke-width="2" fill="none"></path></g></g><mask></mask><g stroke-opacity="0.3" fill-opacity="0.3" stroke-linecap="round" transform="translate(426.81730853871534 136.92610819751388) rotate(16.558439250172864 106 25)"><path d="M12.5 0 C75.08 3.05, 137.41 2.05, 199.5 0 M12.5 0 C51.86 0.66, 90.47 0.97, 199.5 0 M199.5 0 C206.05 1.13, 212 2.82, 212 12.5 M199.5 0 C209.69 0.53, 213.55 4.04, 212 12.5 M212 12.5 C213.43 21.74, 210.8 26.89, 212 37.5 M212 12.5 C212.45 19.25, 211.89 28.34, 212 37.5 M212 37.5 C212.79 46.16, 208.39 48.05, 199.5 50 M212 37.5 C210.08 45.05, 208.21 47.96, 199.5 50 M199.5 50 C124.19 51.45, 51.43 49.73, 12.5 50 M199.5 50 C133.84 49.88, 66.89 49.53, 12.5 50 M12.5 50 C2.75 48.91, 0.98 46.14, 0 37.5 M12.5 50 C2.19 50.76, 1.52 47.2, 0 37.5 M0 37.5 C-0.48 30.53, -0.35 28.25, 0 12.5 M0 37.5 C0.03 30, 0.89 21.94, 0 12.5 M0 12.5 C-1.88 2.45, 5.77 1.95, 12.5 0 M0 12.5 C1.36 3.73, 3.03 -0.12, 12.5 0" stroke="var(--fonte)" stroke-width="2" fill="none"></path></g><g stroke-linecap="round"><g stroke-opacity="0.3" fill-opacity="0.3" transform="translate(627.7303637389283 182.0005958402195) rotate(16.558439250172864 59 9.5)"><path d="M0.76 0.96 C20.64 3.85, 98.52 15.05, 118.16 17.89 M-0.31 0.43 C19.53 3.37, 97.55 15.78, 117.29 18.84" stroke="var(--fonte)" stroke-width="2" fill="none"></path></g></g><mask></mask><g stroke-linecap="round"><g stroke-opacity="0.3" fill-opacity="0.3" transform="translate(622.5610358307264 231.61329282089463) rotate(16.558439250172864 59.5 -15.5)"><path d="M0.16 -1.11 C19.96 -6.61, 99.65 -26.84, 119.58 -31.99 M-1.22 0.92 C18.41 -4.54, 98.84 -25.61, 118.93 -30.98" stroke="var(--fonte)" stroke-width="2" fill="none"></path></g></g><mask></mask><g stroke-opacity="0.3" fill-opacity="0.3" stroke-linecap="round" transform="translate(426.2765514279091 177.11533177418852) rotate(345.12842829567205 106 25)"><path d="M12.5 0 C57.83 -2.41, 104.77 -0.6, 199.5 0 M12.5 0 C81.87 0.38, 150.5 0.03, 199.5 0 M199.5 0 C206.47 -1.95, 212.09 4.33, 212 12.5 M199.5 0 C206.22 0.99, 210.02 3.86, 212 12.5 M212 12.5 C212.66 19.59, 210.43 29.88, 212 37.5 M212 12.5 C211.25 20.24, 211.02 29.21, 212 37.5 M212 37.5 C211.49 45.88, 208.96 50.18, 199.5 50 M212 37.5 C211.79 48.04, 207.95 51.43, 199.5 50 M199.5 50 C149.94 49.29, 96.69 49.64, 12.5 50 M199.5 50 C130.05 48.32, 62.18 47.36, 12.5 50 M12.5 50 C3.58 51.09, 0.44 45.25, 0 37.5 M12.5 50 C2.54 49.89, 1.26 47.7, 0 37.5 M0 37.5 C1.84 30.61, 1.42 19.43, 0 12.5 M0 37.5 C0.67 30.45, -0.41 24.61, 0 12.5 M0 12.5 C-1.79 3.46, 3.78 -1.26, 12.5 0 M0 12.5 C1.93 1.91, 2.67 -0.02, 12.5 0" stroke="var(--fonte)" stroke-width="2" fill="none"></path></g><g stroke-linecap="round"><g stroke-opacity="0.3" fill-opacity="0.3" transform="translate(620.2406916173421 137.64388825146892) rotate(345.12842829567205 59 9.5)"><path d="M-0.81 0.97 C18.79 4.27, 98.49 16.75, 118.28 19.81 M0.97 0.43 C20.38 3.4, 98.11 14.71, 117.47 18.11" stroke="var(--fonte)" stroke-width="2" fill="none"></path></g></g><mask></mask><g stroke-linecap="round"><g stroke-opacity="0.3" fill-opacity="0.3" transform="translate(628.3184320914612 186.27304917168203) rotate(345.12842829567205 59.5 -15.5)"><path d="M0.28 0.81 C20.23 -4.47, 99.01 -25.55, 118.93 -30.68 M-1.04 0.19 C18.83 -5.55, 97.86 -27.31, 117.95 -32.63" stroke="var(--fonte)" stroke-width="2" fill="none"></path></g></g><mask></mask><g stroke-linecap="round"><g transform="translate(71.03804057339353 123.1314222612715) rotate(0 147.0247549341392 60.368577738728504)"><path d="M0.02 -1.09 C13.09 12.35, 48.69 62.38, 77.48 81.36 C106.26 100.35, 147.37 113.18, 172.75 112.81 C198.13 112.45, 218.67 92.22, 229.76 79.18 C240.86 66.15, 241.51 47.54, 239.32 34.61 C237.13 21.68, 228.65 7.91, 216.62 1.62 C204.6 -4.68, 180.27 -7.78, 167.18 -3.15 C154.09 1.47, 142.09 14.71, 138.07 29.36 C134.06 44.01, 130.77 69.24, 143.07 84.75 C155.37 100.27, 189.75 121.88, 211.89 122.47 C234.03 123.06, 262.32 100.69, 275.9 88.3 C289.49 75.91, 291.47 61.27, 293.41 48.12 C295.35 34.97, 288.42 16.03, 287.54 9.39 M-1.43 0.96 C11.52 14.49, 47.35 63.78, 76.23 82.63 C105.1 101.49, 146.13 114.55, 171.83 114.1 C197.52 113.65, 219.36 93.05, 230.39 79.93 C241.41 66.81, 240.61 48.55, 237.99 35.39 C235.37 22.23, 226.45 7.09, 214.68 0.97 C202.91 -5.16, 180.3 -6.01, 167.36 -1.38 C154.43 3.25, 141.39 14.12, 137.06 28.75 C132.73 43.39, 128.82 70.94, 141.41 86.44 C154 101.95, 190.12 121.29, 212.58 121.8 C235.03 122.31, 262.36 101.84, 276.15 89.51 C289.94 77.18, 293.43 61.27, 295.32 47.83 C297.22 34.39, 288.81 15.52, 287.5 8.84" stroke="var(--fonte)" stroke-width="2" fill="none"></path></g><g transform="translate(71.03804057339353 123.1314222612715) rotate(0 147.0247549341392 60.368577738728504)"><path d="M299.25 24.69 C294.78 20.26, 293.15 17.21, 287.5 8.84 M299.25 24.69 C295.91 20.55, 292.69 15.87, 287.5 8.84" stroke="var(--fonte)" stroke-width="2" fill="none"></path></g><g transform="translate(71.03804057339353 123.1314222612715) rotate(0 147.0247549341392 60.368577738728504)"><path d="M286.32 28.53 C284.67 23.25, 285.89 19.36, 287.5 8.84 M286.32 28.53 C286.77 23.33, 287.37 17.52, 287.5 8.84" stroke="var(--fonte)" stroke-width="2" fill="none"></path></g></g><mask></mask><g stroke-linecap="round"><g transform="translate(393.2436914367829 171.35377532945336) rotate(0 20.833704398322368 85.93903064307975)"><path d="M0.82 -0.37 C1.69 16.12, -2.23 69.75, 4.51 98.46 C11.25 127.17, 35.2 159.76, 41.25 171.9 M-0.21 -1.6 C1.11 15.09, 0.11 70.6, 6.86 99.73 C13.61 128.87, 34.64 161.16, 40.27 173.23" stroke="var(--fonte)" stroke-width="2" fill="none"></path></g><g transform="translate(393.2436914367829 171.35377532945336) rotate(0 20.833704398322368 85.93903064307975)"><path d="M21.62 156.58 C25.42 159.29, 29.68 163.76, 40.27 173.23 M21.62 156.58 C26.74 161.25, 32.25 167.16, 40.27 173.23" stroke="var(--fonte)" stroke-width="2" fill="none"></path></g><g transform="translate(393.2436914367829 171.35377532945336) rotate(0 20.833704398322368 85.93903064307975)"><path d="M36.69 148.49 C36.84 153.25, 37.47 159.66, 40.27 173.23 M36.69 148.49 C37.2 155.53, 38.16 163.88, 40.27 173.23" stroke="var(--fonte)" stroke-width="2" fill="none"></path></g></g><mask></mask><g stroke-linecap="round"><g transform="translate(393.71597550316994 167.88149126306632) rotate(0 18.229491348532065 -67.70953929454768)"><path d="M0.05 -0.75 C0.41 -12.52, -3.45 -47.12, 2.44 -69.67 C8.33 -92.22, 29.73 -125.25, 35.37 -136.05 M-1.39 1.47 C-1.14 -10.2, -4.65 -45.49, 1.86 -68.25 C8.37 -91, 31.93 -123.69, 37.7 -135.06" stroke="var(--fonte)" stroke-width="2" fill="none"></path></g><g transform="translate(393.71597550316994 167.88149126306632) rotate(0 18.229491348532065 -67.70953929454768)"><path d="M32.98 -110.51 C33.05 -117.23, 35.44 -128.09, 37.7 -135.06 M32.98 -110.51 C34.83 -117.08, 35.41 -123.09, 37.7 -135.06" stroke="var(--fonte)" stroke-width="2" fill="none"></path></g><g transform="translate(393.71597550316994 167.88149126306632) rotate(0 18.229491348532065 -67.70953929454768)"><path d="M18.31 -119.28 C23.16 -123.19, 30.27 -131.24, 37.7 -135.06 M18.31 -119.28 C23.78 -123.81, 27.99 -127.64, 37.7 -135.06" stroke="var(--fonte)" stroke-width="2" fill="none"></path></g></g><mask></mask><g stroke-linecap="round"><g transform="translate(761.9945095612715 161.07733614226157) rotate(0 -12.996564859497425 15.091378881946838)"><path d="M0.73 0.28 C-0.49 -0.63, -4.19 -4.83, -7.29 -5.52 C-10.4 -6.22, -14.8 -6.97, -17.91 -3.87 C-21.02 -0.77, -25.66 7.46, -25.96 13.08 C-26.25 18.71, -21.87 26.05, -19.67 29.9 C-17.47 33.75, -15.46 35.6, -12.78 36.19 C-10.11 36.78, -5.3 33.98, -3.6 33.42 M-0.34 -0.62 C-1.69 -1.37, -5.03 -3.85, -8.05 -4.27 C-11.07 -4.69, -15.52 -6.16, -18.46 -3.13 C-21.4 -0.11, -25.33 8.26, -25.69 13.88 C-26.05 19.5, -22.95 26.94, -20.62 30.57 C-18.29 34.21, -14.65 35.4, -11.71 35.69 C-8.77 35.98, -4.42 32.86, -2.98 32.32" stroke="var(--fonte)" stroke-width="2" fill="none"></path></g><g transform="translate(761.9945095612715 161.07733614226157) rotate(0 -12.996564859497425 15.091378881946838)"><path d="M-5.97 35.59 C-4.97 34.72, -4.37 33.75, -2.98 32.32 M-5.97 35.59 C-5.16 35.02, -4.84 34.43, -2.98 32.32" stroke="var(--fonte)" stroke-width="2" fill="none"></path></g><g transform="translate(761.9945095612715 161.07733614226157) rotate(0 -12.996564859497425 15.091378881946838)"><path d="M-7.37 32.9 C-5.95 32.83, -4.93 32.67, -2.98 32.32 M-7.37 32.9 C-6.27 32.9, -5.66 32.87, -2.98 32.32" stroke="var(--fonte)" stroke-width="2" fill="none"></path></g></g><mask></mask><g transform="translate(172.08755044167185 43) rotate(0 41.66666793823242 12.5)"><text x="0" y="17.52" font-family="Virgil, Segoe UI Emoji" font-size="20px" fill="var(--fonte)" text-anchor="start" style="white-space: pre;" direction="ltr" dominant-baseline="alphabetic">Nutação</text></g><g transform="translate(746.0875504416719 133) rotate(0 41.86666488647461 12.5)"><text x="0" y="17.52" font-family="Virgil, Segoe UI Emoji" font-size="20px" fill="var(--fonte)" text-anchor="start" style="white-space: pre;" direction="ltr" dominant-baseline="alphabetic">Rotação</text></g><g transform="translate(371.08755044167185 10) rotate(0 49.93333435058594 12.5)"><text x="0" y="17.52" font-family="Virgil, Segoe UI Emoji" font-size="20px" fill="var(--fonte)" text-anchor="start" style="white-space: pre;" direction="ltr" dominant-baseline="alphabetic">Precessão</text></g><g stroke-opacity="0.3" fill-opacity="0.3" stroke-linecap="round" transform="translate(10.336717317602833 68.8305631762259) rotate(360.7951168098497 106 25)"><path d="M12.5 0 C58.74 0.37, 103.32 -0.99, 199.5 0 M12.5 0 C57.85 -1.57, 103.98 -2.08, 199.5 0 M199.5 0 C207.47 0.63, 213.04 3.49, 212 12.5 M199.5 0 C208.95 -0.82, 213.59 2.69, 212 12.5 M212 12.5 C211.57 18.51, 212.36 27, 212 37.5 M212 12.5 C211.24 21.88, 211.31 32.92, 212 37.5 M212 37.5 C210.77 46.58, 207.12 51.8, 199.5 50 M212 37.5 C213.36 47.86, 207.13 49.59, 199.5 50 M199.5 50 C130.28 51.04, 59.04 51.8, 12.5 50 M199.5 50 C147.13 49.57, 94.01 50.47, 12.5 50 M12.5 50 C3.27 49.51, -1.71 47.71, 0 37.5 M12.5 50 C6.44 51.33, -1.88 47.96, 0 37.5 M0 37.5 C-1.29 32.62, 1.71 24.22, 0 12.5 M0 37.5 C-0.65 32.09, 0.49 27.04, 0 12.5 M0 12.5 C0.79 2.54, 4.25 0.72, 12.5 0 M0 12.5 C0.75 4.04, 2.2 0.67, 12.5 0" stroke="var(--fonte)" stroke-width="2" fill="none"></path></g><g stroke-linecap="round"><g stroke-opacity="0.3" fill-opacity="0.3" transform="translate(213.89055711852154 70.89186715479019) rotate(360.7951168098497 59 9.5)"><path d="M0.26 -0.48 C19.82 2.53, 97.91 14.92, 117.44 18.31 M-1.07 -1.78 C18.29 1.35, 96.63 16.19, 116.2 19.48" stroke="var(--fonte)" stroke-width="2" fill="none"></path></g></g><mask></mask><g stroke-linecap="round"><g stroke-opacity="0.3" fill-opacity="0.3" transform="translate(214.94164779073185 121.30840894289571) rotate(360.7951168098497 59.5 -15.5)"><path d="M-0.56 -0.69 C19.13 -5.64, 98.47 -25.05, 118.4 -30.15 M1.34 1.56 C21.41 -3.67, 101.31 -26.54, 120.8 -31.83" stroke="var(--fonte)" stroke-width="2" fill="none"></path></g></g><mask></mask><g stroke-opacity="0.3" fill-opacity="0.3" stroke-linecap="round" transform="translate(63.17947674623029 167.14375119574652) rotate(0.7951168098497048 78.20924043446132 18.445575574165417)"><path d="M9.22 0 C58.9 1.81, 109.74 1.86, 147.2 0 M9.22 0 C59.64 0.84, 109.01 0.04, 147.2 0 M147.2 0 C152.09 1.87, 156.64 2.35, 156.42 9.22 M147.2 0 C154.86 1.55, 156.76 1.84, 156.42 9.22 M156.42 9.22 C158.17 15.75, 154.9 22.14, 156.42 27.67 M156.42 9.22 C157.22 13.44, 156.95 16.69, 156.42 27.67 M156.42 27.67 C154.51 32.85, 152.14 38.34, 147.2 36.89 M156.42 27.67 C157.55 33.72, 151.57 36.83, 147.2 36.89 M147.2 36.89 C93.23 34.63, 37.37 36.93, 9.22 36.89 M147.2 36.89 C97.99 36.28, 48.96 37.24, 9.22 36.89 M9.22 36.89 C3.76 36.92, 0.6 33.99, 0 27.67 M9.22 36.89 C4.37 39.06, -0.81 34.61, 0 27.67 M0 27.67 C-0.79 24.09, 0.43 20.16, 0 9.22 M0 27.67 C-0.29 21.43, -0.2 15.99, 0 9.22 M0 9.22 C0.18 4.37, 5.05 -0.32, 9.22 0 M0 9.22 C-0.75 5.06, 1 -1.97, 9.22 0" stroke="var(--fonte)" stroke-width="2" fill="none"></path></g><g stroke-linecap="round"><g stroke-opacity="0.3" fill-opacity="0.3" transform="translate(213.36618616460646 168.66462872846387) rotate(0.7951168098497048 43.53155835503037 7.009318718182868)"><path d="M1 -1.07 C15.7 1.53, 73.73 12.27, 88.09 14.73 M0.06 0.98 C14.71 3.32, 73.29 10.67, 87.68 12.98" stroke="var(--fonte)" stroke-width="2" fill="none"></path></g></g><mask></mask><g stroke-linecap="round"><g stroke-opacity="0.3" fill-opacity="0.3" transform="translate(214.14170506178868 205.86311399808665) rotate(0.7951168098497048 43.900469866513674 -11.436256855982549)"><path d="M1.02 0.71 C15.5 -2.98, 73.22 -19.37, 87.85 -23.21 M0.1 0.04 C14.34 -3.38, 72.19 -17.78, 86.93 -21.85" stroke="var(--fonte)" stroke-width="2" fill="none"></path></g></g><mask></mask><g stroke-opacity="0.3" fill-opacity="0.3" stroke-linecap="round" transform="translate(146.12797609293193 225.77775640108092) rotate(0.7951168098497048 61.99662241859059 14.621844910044956)"><path d="M7.31 0 C31.56 2.09, 57.41 0.47, 116.68 0 M7.31 0 C35.68 1.72, 66.18 1.14, 116.68 0 M116.68 0 C122.9 -0.74, 125.93 1.9, 123.99 7.31 M116.68 0 C120.27 -0.2, 124.35 2.7, 123.99 7.31 M123.99 7.31 C122.86 11.09, 125.2 12.4, 123.99 21.93 M123.99 7.31 C124.01 11.95, 123.69 16.03, 123.99 21.93 M123.99 21.93 C125.14 26.71, 121.92 30.91, 116.68 29.24 M123.99 21.93 C123.5 24.98, 122.96 28.07, 116.68 29.24 M116.68 29.24 C76.59 28.64, 37.45 30.28, 7.31 29.24 M116.68 29.24 C85.69 29.47, 54.46 28.69, 7.31 29.24 M7.31 29.24 C1.45 28.42, -0.18 24.85, 0 21.93 M7.31 29.24 C0.45 31.32, -1.79 29.04, 0 21.93 M0 21.93 C-0.09 14.93, -0.86 10.79, 0 7.31 M0 21.93 C0.66 16.54, 0.06 12.11, 0 7.31 M0 7.31 C1.28 2.11, 3.5 -0.16, 7.31 0 M0 7.31 C0.7 0.62, 1.21 1.44, 7.31 0" stroke="var(--fonte)" stroke-width="2" fill="none"></path></g><g stroke-linecap="round"><g stroke-opacity="0.3" fill-opacity="0.3" transform="translate(265.18128314945864 226.98335908456198) rotate(0.7951168098497048 34.507553987706075 5.556301065817081)"><path d="M0.78 1.19 C12.39 2.95, 57.28 9.24, 68.82 10.72 M-0.27 0.76 C11.25 2.69, 56.09 10.38, 67.77 12.05" stroke="var(--fonte)" stroke-width="2" fill="none"></path></g></g><mask></mask><g stroke-linecap="round"><g stroke-opacity="0.3" fill-opacity="0.3" transform="translate(265.79603854127697 256.4706732816211) rotate(0.7951168098497048 34.79999088590699 -9.065543844227875)"><path d="M-0.19 -0.39 C11.45 -3.79, 59.18 -16.4, 70.64 -19.21 M-1.75 -1.65 C9.76 -4.43, 58.12 -15.33, 70.23 -18.24" stroke="var(--fonte)" stroke-width="2" fill="none"></path></g></g><mask></mask><g stroke-opacity="0.3" fill-opacity="0.3" stroke-linecap="round" transform="translate(312.0408743300052 197.8687998002742) rotate(0.7951168098497048 34.57662829422446 8.154865163732183)"><path d="M4.08 0 C21.27 1.23, 40.03 -1.1, 65.08 0 M4.08 0 C26.45 -0.48, 50.19 0.89, 65.08 0 M65.08 0 C67.29 0.82, 71.05 0.38, 69.15 4.08 M65.08 0 C67.22 -1.99, 67.03 2.92, 69.15 4.08 M69.15 4.08 C69.29 5.97, 68.94 9.09, 69.15 12.23 M69.15 4.08 C69.25 7.41, 69.17 10.17, 69.15 12.23 M69.15 12.23 C68.84 14.27, 66.43 16.88, 65.08 16.31 M69.15 12.23 C69.91 15.33, 65.68 14.12, 65.08 16.31 M65.08 16.31 C39.88 17.07, 16.86 17.57, 4.08 16.31 M65.08 16.31 C46.65 14.76, 27.04 15.76, 4.08 16.31 M4.08 16.31 C2.92 16.77, 0.43 14.48, 0 12.23 M4.08 16.31 C0.23 15.04, -0.44 15.47, 0 12.23 M0 12.23 C0.22 10.32, 0.5 8.83, 0 4.08 M0 12.23 C-0.29 9.4, 0.15 6.58, 0 4.08 M0 4.08 C-0.72 0.26, -0.52 0.93, 4.08 0 M0 4.08 C0.61 3.57, 1.37 2.13, 4.08 0" stroke="var(--fonte)" stroke-width="2" fill="none"></path></g><g stroke-linecap="round"><g stroke-opacity="0.3" fill-opacity="0.3" transform="translate(378.4390390154625 198.54118604054048) rotate(0.7951168098497048 19.245481786407936 3.098848762218239)"><path d="M0.27 0.28 C6.66 1.4, 31.68 5.71, 38.12 6.65 M-0.25 -0.05 C6.33 0.93, 32.66 4.85, 39.16 5.91" stroke="var(--fonte)" stroke-width="2" fill="none"></path></g></g><mask></mask><g stroke-linecap="round"><g stroke-opacity="0.3" fill-opacity="0.3" transform="translate(378.7818991237318 214.98679005268724) rotate(0.7951168098497048 19.408579089682576 -5.0560164015139435)"><path d="M-0.37 0.45 C6.12 -1.33, 32.76 -8.58, 39.21 -10.42 M0.44 0.21 C6.87 -1.53, 32.49 -8.14, 38.98 -9.87" stroke="var(--fonte)" stroke-width="2" fill="none"></path></g></g><mask></mask></svg>