<?xml version="1.0" standalone="no"?>
<!DOCTYPE svg PUBLIC "-//W3C//DTD SVG 20010904//EN"
 "http://www.w3.org/TR/2001/REC-SVG-20010904/DTD/svg10.dtd">
<svg version="1.0" xmlns="http://www.w3.org/2000/svg"
 width="414.000000pt" height="897.000000pt" viewBox="0 0 414.000000 897.000000"
 preserveAspectRatio="xMidYMid meet">
<metadata>
Created by potrace 1.16, written by Peter Selinger 2001-2019
</metadata>
<g transform="translate(0.000000,897.000000) scale(0.100000,-0.100000)"
stroke="var(--fonte)" fill="none">
<path d="M0 4490 l0 -4480 2070 0 2070 0 0 4480 0 4480 -2070 0 -2070 0 0
-4480z m1989 4433 c20 -3 22 -6 10 -14 -10 -7 -5 -9 19 -5 17 2 32 0 32 -5 0
-5 7 -9 15 -9 8 0 15 -6 16 -12 0 -10 2 -10 6 0 2 6 18 12 34 12 22 0 28 -4
23 -12 -6 -10 -4 -10 8 0 11 9 18 10 23 2 3 -6 11 -8 16 -4 11 6 116 -43 126
-59 4 -6 0 -7 -8 -3 -8 4 -2 -2 14 -14 15 -12 27 -28 27 -36 0 -9 4 -13 9 -9
5 3 11 -5 13 -17 2 -13 9 -22 16 -20 8 1 11 -9 8 -33 -2 -19 -1 -34 2 -34 19
3 42 -2 41 -8 -1 -5 0 -10 1 -13 8 -22 13 -53 14 -100 0 -30 4 -60 9 -67 4 -6
3 -14 -3 -18 -13 -8 -13 -75 1 -75 6 0 3 -7 -5 -16 -9 -8 -16 -20 -16 -26 0
-6 -7 -20 -17 -30 -9 -11 -11 -18 -5 -18 25 0 49 -37 48 -72 -1 -20 -4 -34 -8
-31 -5 2 -8 -12 -8 -31 0 -20 -5 -36 -11 -36 -5 0 -7 -5 -4 -10 3 -6 -1 -13
-10 -16 -13 -6 -14 -8 -3 -15 10 -7 9 -9 -4 -9 -11 0 -15 -5 -12 -14 3 -8 -3
-23 -14 -34 -11 -11 -18 -23 -15 -25 8 -9 -36 -19 -48 -11 -7 4 -9 3 -5 -4 3
-6 1 -14 -5 -17 -5 -4 -8 -13 -5 -20 3 -8 1 -15 -4 -17 -5 -2 -10 -10 -12 -18
-2 -8 -10 -21 -18 -28 -8 -8 -9 -11 -2 -7 6 3 12 1 12 -4 0 -6 -4 -11 -10 -11
-6 0 -10 -49 -10 -127 0 -74 4 -122 9 -115 6 11 10 10 16 -5 5 -10 7 -22 6
-26 -1 -5 3 -6 9 -2 5 3 10 1 10 -5 0 -6 4 -9 9 -6 5 3 11 -1 15 -9 3 -8 13
-15 22 -15 9 0 25 -10 35 -22 13 -14 19 -17 19 -7 1 10 4 8 11 -4 7 -12 17
-16 31 -11 12 4 18 2 14 -4 -3 -5 3 -12 14 -15 11 -3 20 0 20 6 0 8 3 8 8 -1
5 -7 26 -14 47 -16 21 -2 40 -8 44 -13 6 -8 9 -9 57 -11 16 -1 23 -6 18 -14
-5 -7 -2 -9 8 -5 9 3 20 1 25 -4 6 -6 28 -11 49 -13 21 -1 48 -7 59 -13 11 -6
26 -8 34 -5 10 3 12 0 7 -13 -5 -14 -2 -16 18 -11 18 4 31 0 45 -15 11 -12 24
-18 30 -14 6 3 14 -1 17 -9 3 -9 14 -16 24 -16 10 0 22 -9 25 -20 3 -11 11
-20 16 -20 6 0 7 5 3 12 -4 7 -3 8 4 4 6 -4 9 -13 5 -22 -3 -8 -2 -14 3 -13
15 4 44 -13 39 -21 -3 -4 2 -10 10 -14 8 -3 15 -15 15 -26 0 -11 6 -23 14 -26
12 -5 29 -47 27 -69 0 -2 6 -25 14 -51 7 -25 11 -53 8 -62 -4 -10 -2 -13 6 -8
8 6 10 -1 6 -24 -3 -18 -2 -37 3 -44 4 -6 8 -18 7 -26 -1 -8 3 -23 7 -32 6
-12 5 -18 -4 -18 -9 0 -9 -3 2 -10 10 -6 11 -10 3 -10 -7 0 -13 -9 -13 -20 0
-11 6 -20 13 -21 10 0 10 -2 0 -6 -7 -2 -13 -13 -13 -24 0 -11 6 -29 13 -40
10 -18 9 -23 -2 -27 -11 -4 -11 -6 0 -13 10 -6 11 -9 2 -9 -7 0 -13 -9 -13
-20 0 -11 4 -20 8 -20 4 0 6 -16 4 -35 -2 -19 0 -35 6 -35 13 0 20 -20 28 -77
3 -26 12 -53 20 -60 17 -18 18 -25 2 -41 -9 -9 -9 -12 1 -12 8 0 11 -10 7 -30
-2 -17 -1 -28 4 -25 4 3 10 -6 12 -20 4 -16 1 -22 -6 -18 -6 4 -5 -1 3 -10 11
-14 11 -17 0 -17 -12 0 -12 -2 0 -9 10 -7 14 -33 15 -98 0 -48 4 -91 9 -94 5
-3 10 -19 12 -35 1 -15 7 -30 13 -32 6 -2 9 -9 6 -17 -3 -7 0 -16 5 -20 6 -3
9 -11 6 -16 -4 -5 1 -9 9 -9 9 0 16 -8 17 -17 1 -34 8 -56 19 -63 6 -3 9 -17
6 -31 -2 -13 3 -35 11 -48 8 -13 10 -20 4 -17 -6 4 -11 2 -11 -3 0 -6 4 -11 8
-11 5 0 9 -6 10 -12 1 -7 3 -31 5 -53 2 -22 7 -46 11 -53 4 -7 3 -19 -4 -26
-8 -11 -8 -15 1 -18 7 -2 13 -28 15 -61 2 -32 8 -66 14 -77 7 -13 7 -21 0 -25
-7 -4 -7 -11 -2 -18 5 -7 10 -41 11 -77 2 -76 4 -97 14 -106 11 -11 8 -26 -3
-19 -6 3 -10 -4 -10 -17 0 -19 2 -20 10 -8 8 11 9 5 7 -22 -3 -21 -1 -40 2
-44 6 -6 9 -35 13 -121 2 -24 5 -43 9 -43 6 0 6 -2 12 -57 3 -23 17 -45 48
-75 25 -24 48 -44 52 -45 22 -8 47 -30 47 -40 0 -7 4 -13 9 -13 5 0 13 -9 16
-21 4 -11 9 -18 13 -15 8 9 43 -25 36 -35 -3 -5 1 -9 9 -9 8 0 20 -7 27 -15 7
-8 16 -12 21 -9 5 3 8 2 7 -3 -2 -4 2 -9 7 -11 13 -4 35 -45 29 -54 -2 -3 0
-9 6 -13 5 -3 10 -15 10 -26 0 -11 4 -18 9 -15 5 3 12 -6 15 -19 4 -14 11 -23
16 -20 5 3 8 -3 7 -14 0 -11 -6 -17 -14 -14 -8 3 -13 -3 -13 -17 0 -16 -4 -20
-16 -16 -8 3 -12 2 -9 -4 3 -6 1 -10 -4 -10 -6 0 -11 5 -11 11 0 5 -4 8 -9 4
-5 -3 -12 -1 -16 5 -4 6 -10 8 -15 5 -5 -3 -11 4 -15 15 -4 11 -11 18 -16 15
-5 -4 -9 0 -9 8 0 7 -6 14 -13 14 -9 0 -13 -20 -13 -69 0 -37 3 -68 8 -68 4 0
8 -7 8 -15 0 -8 -5 -15 -11 -15 -5 0 -7 -5 -4 -10 4 -6 11 -8 16 -5 5 3 6 -1
3 -9 -3 -9 -10 -14 -14 -11 -5 3 -8 -4 -7 -15 1 -11 6 -19 12 -17 6 3 11 -28
12 -85 1 -76 -1 -89 -14 -84 -9 4 -13 1 -10 -6 2 -7 10 -12 16 -10 7 1 10 -2
6 -8 -3 -6 -11 -8 -16 -5 -5 4 -9 -3 -9 -14 0 -11 -5 -23 -11 -27 -8 -4 -7 -9
2 -15 11 -7 10 -9 -3 -9 -10 0 -18 -4 -18 -10 0 -5 -5 -10 -11 -10 -5 0 -7 5
-3 12 4 7 3 8 -4 4 -7 -4 -12 -16 -12 -27 0 -12 -4 -17 -11 -13 -7 4 -9 0 -5
-12 3 -13 -3 -25 -21 -38 -14 -11 -23 -14 -19 -8 5 8 -1 12 -16 11 -13 -1 -37
3 -55 9 -17 6 -34 8 -36 6 -3 -3 -7 7 -11 21 -4 14 -11 25 -17 25 -6 0 -7 5
-4 10 3 6 1 10 -5 10 -6 0 -8 5 -4 11 3 6 0 15 -7 20 -10 6 -11 9 -1 9 6 0 12
5 12 10 0 6 -6 10 -13 10 -17 0 -49 -34 -42 -43 3 -4 2 -5 -1 -2 -4 2 -15 0
-25 -6 -13 -7 -19 -6 -19 1 0 6 -4 9 -9 5 -5 -3 -12 -1 -16 5 -3 5 0 10 7 10
10 0 10 2 -1 9 -7 5 -10 14 -7 20 4 6 3 11 -3 11 -5 0 -9 12 -9 27 0 16 -5 41
-11 56 -9 22 -8 27 2 21 9 -5 9 -4 0 7 -17 17 -16 31 3 55 15 19 15 18 11 -3
-3 -13 -2 -23 2 -23 4 0 6 -13 3 -30 -2 -17 0 -30 6 -30 6 0 8 -9 5 -20 -3
-13 0 -20 8 -20 11 0 11 -2 -1 -10 -10 -6 -11 -10 -2 -10 6 0 12 -9 12 -19 0
-14 5 -18 20 -14 17 5 19 12 14 56 -3 35 -1 53 8 59 11 6 11 10 0 16 -16 11
-12 72 5 72 7 0 16 1 21 3 4 1 8 -9 9 -23 3 -35 7 -53 17 -68 4 -7 5 -24 2
-38 -4 -13 -2 -24 3 -24 5 0 12 -7 15 -16 3 -8 2 -12 -4 -9 -6 3 -10 1 -10 -4
0 -6 4 -11 9 -11 5 0 12 -7 15 -16 3 -8 2 -12 -4 -9 -6 3 -10 -1 -10 -10 0 -9
4 -14 9 -11 8 5 25 -29 22 -46 -1 -11 17 -10 39 2 15 8 21 6 30 -10 6 -11 8
-20 5 -20 -4 0 -3 -5 1 -11 4 -7 10 -7 16 -1 6 6 16 8 22 6 8 -3 11 10 10 41
l-2 45 40 6 c36 6 39 9 33 31 -3 14 -2 22 3 19 9 -5 15 54 13 114 0 14 -1 50
-2 80 -1 38 -4 49 -10 35 -7 -19 -8 -19 -8 3 -1 12 5 22 12 22 8 0 7 4 -3 10
-13 9 -13 10 0 10 9 0 11 3 5 8 -5 4 -10 36 -9 72 0 36 -3 70 -8 77 -5 7 -5
14 2 18 6 3 8 10 5 15 -3 4 3 7 12 5 10 -2 24 -4 31 -4 6 -1 12 -8 12 -16 0
-8 5 -15 11 -15 5 0 7 -5 3 -12 -5 -8 -2 -9 9 -5 10 3 17 3 17 -1 0 -7 48 -32
61 -32 11 0 4 29 -12 48 -8 10 -16 26 -17 37 -2 11 -8 22 -14 24 -6 2 -4 7 3
12 11 7 11 9 -2 9 -9 0 -20 7 -23 16 -4 10 -2 13 6 8 7 -4 8 -3 4 4 -4 7 -13
12 -20 12 -7 0 -18 10 -25 23 -6 12 -9 14 -6 4 4 -17 4 -17 -19 0 -13 10 -22
20 -20 22 7 7 -38 41 -48 35 -12 -7 -6 19 7 28 8 7 -7 10 -31 7 -3 0 -20 15
-37 34 -18 18 -38 32 -45 29 -6 -2 -15 3 -18 12 -3 9 -11 13 -17 9 -5 -3 -7
-1 -4 4 4 6 0 16 -9 23 -8 7 -13 19 -10 26 3 7 1 16 -5 20 -5 3 -7 15 -3 26 4
13 2 18 -4 14 -7 -4 -13 8 -17 31 -3 21 -8 46 -10 56 -2 9 2 17 8 17 8 0 8 3
2 8 -5 4 -12 14 -13 22 -10 43 -10 50 0 44 8 -5 9 0 4 17 -15 48 -24 115 -21
159 2 26 -2 48 -9 52 -8 6 -8 8 2 8 6 0 12 5 12 11 0 5 -6 7 -12 3 -10 -6 -10
-4 0 8 10 13 10 18 1 24 -8 5 -9 3 -4 -6 5 -9 4 -11 -3 -6 -8 5 -10 26 -8 58
3 32 -1 65 -10 86 -17 41 -20 76 -4 52 6 -9 10 -10 10 -3 0 6 -4 14 -8 17 -5
3 -8 20 -7 38 2 18 -1 38 -5 43 -4 6 -10 24 -14 40 -5 22 -4 26 4 15 6 -9 10
-10 10 -3 0 6 -4 14 -10 18 -5 3 -6 13 -3 22 4 11 3 14 -5 9 -8 -5 -12 3 -13
26 -1 18 -1 37 0 42 4 18 -11 46 -21 40 -7 -5 -9 0 -5 15 3 12 -1 28 -10 36
-8 8 -11 15 -7 15 3 0 0 8 -7 17 -8 9 -9 14 -2 10 7 -5 9 0 6 14 -4 16 -8 17
-14 7 -6 -9 -9 -8 -9 7 0 11 -7 30 -15 42 -9 12 -16 49 -17 86 -2 36 -6 60
-10 53 -5 -6 -8 -2 -8 12 0 12 6 22 13 23 8 0 8 2 1 5 -7 3 -10 14 -7 24 3 11
1 20 -4 20 -5 0 -9 11 -9 24 0 14 4 22 8 20 4 -3 8 -1 8 5 0 5 -5 11 -11 13
-6 2 -13 22 -15 43 -2 22 -6 54 -9 70 -3 17 -6 42 -7 58 -1 17 -7 27 -17 28
-11 0 -12 2 -3 6 10 4 10 8 1 19 -6 8 -9 14 -5 14 3 0 -4 18 -15 40 -18 34
-19 43 -8 57 11 13 11 17 2 20 -7 3 -13 16 -13 29 0 13 6 24 13 24 8 0 7 3 -3
10 -12 7 -12 12 -2 22 15 15 16 78 1 78 -8 0 -7 6 2 17 8 9 10 14 4 11 -10 -6
-17 34 -19 109 0 23 -4 39 -8 37 -5 -3 -9 12 -10 33 -2 59 -2 61 -16 75 -14
14 -17 32 -4 24 5 -3 4 10 -2 29 -6 18 -14 31 -18 29 -4 -3 -10 7 -14 21 -3
14 -10 25 -15 25 -5 0 -9 7 -9 16 0 9 -5 12 -12 8 -7 -5 -9 -2 -6 7 7 18 -18
44 -25 26 -3 -7 -6 -4 -6 6 -1 10 -7 17 -13 15 -7 -3 -18 0 -24 6 -23 22 -67
51 -72 48 -3 -2 -8 1 -11 6 -3 6 -21 12 -39 15 -18 3 -38 10 -45 15 -7 5 -22
8 -34 7 -13 -1 -19 3 -16 11 3 9 -2 11 -18 7 -17 -5 -20 -3 -14 7 6 10 4 12
-10 7 -9 -4 -25 -2 -33 5 -13 11 -14 11 -7 -2 7 -12 3 -11 -18 3 -15 10 -42
17 -61 15 -19 -1 -41 4 -50 11 -9 8 -16 10 -16 5 0 -5 -7 0 -15 10 -9 12 -15
15 -15 7 0 -10 -3 -11 -13 -2 -8 6 -17 8 -20 5 -3 -4 -13 1 -22 9 -8 9 -22 14
-30 11 -8 -4 -17 1 -21 9 -3 9 -12 13 -20 10 -9 -3 -14 0 -12 8 2 9 -4 13 -15
11 -9 -2 -20 4 -23 12 -3 9 -10 14 -14 11 -4 -2 -20 7 -36 21 l-28 27 0 153
c-1 118 2 155 12 159 7 3 11 9 7 14 -3 6 3 14 12 20 10 6 12 11 6 11 -7 0 -13
5 -13 11 0 5 5 7 12 3 7 -4 8 -3 4 5 -4 6 -2 19 6 28 11 14 11 16 -2 8 -12 -6
-13 -6 -2 6 11 12 14 12 21 0 7 -11 12 -10 22 8 8 11 20 21 27 21 7 0 10 5 7
10 -3 6 -1 10 5 10 6 0 9 4 6 8 -3 5 4 23 15 41 11 19 14 30 7 26 -7 -4 -6 -1
3 7 33 28 18 133 -17 121 -13 -4 -23 25 -17 45 3 6 9 10 14 6 5 -3 9 4 9 15 0
12 7 21 15 21 8 0 15 5 15 11 0 5 -4 7 -10 4 -5 -3 -10 1 -10 9 0 9 5 16 10
16 12 0 10 79 -2 86 -4 3 -8 13 -7 22 0 14 2 13 8 -3 6 -13 8 2 7 42 -1 41 -5
64 -14 68 -7 3 -10 10 -7 16 4 6 -6 24 -21 41 -16 17 -23 28 -16 24 19 -11 14
18 -7 43 -11 12 -23 21 -28 19 -4 -2 -15 12 -23 29 -8 18 -20 31 -27 28 -6 -2
-21 5 -34 16 -12 10 -28 19 -36 19 -8 0 -12 4 -9 9 4 5 -24 8 -64 8 -39 -1
-70 2 -70 6 0 5 -4 6 -9 3 -5 -3 -11 0 -14 7 -2 7 -17 13 -32 15 -16 1 -34 7
-41 13 -10 8 -14 8 -14 1 0 -6 -14 -10 -32 -10 -18 1 -34 -5 -36 -12 -4 -10
-6 -9 -13 1 -7 11 -9 10 -9 -4 0 -10 -4 -15 -10 -12 -5 3 -10 1 -10 -4 0 -6
-3 -10 -7 -9 -16 5 -83 -48 -83 -64 0 -10 -7 -18 -15 -18 -8 0 -15 -7 -15 -16
0 -8 -4 -13 -9 -9 -5 3 -12 -4 -16 -15 -4 -11 -11 -17 -17 -14 -7 5 -9 1 -5
-9 4 -11 1 -17 -9 -17 -8 0 -14 -6 -13 -12 3 -26 -1 -39 -11 -33 -9 6 -12 -1
-9 -22 0 -3 -7 -11 -16 -16 -14 -8 -15 -11 -4 -18 11 -7 11 -9 1 -9 -7 0 -11
-4 -8 -9 3 -5 -1 -11 -9 -15 -8 -3 -15 -11 -15 -18 0 -9 3 -9 11 2 8 11 9 9 3
-10 -4 -14 -9 -27 -13 -30 -17 -14 -22 -120 -6 -136 8 -8 12 -21 9 -29 -4 -8
-1 -15 5 -15 6 0 8 -7 4 -17 -4 -11 -3 -14 5 -9 7 4 12 1 12 -8 0 -14 -18 -21
-42 -17 -4 0 -5 -5 -2 -13 3 -8 0 -17 -7 -22 -8 -4 -10 -3 -5 4 4 7 2 12 -3
12 -6 0 -11 -7 -11 -15 0 -8 5 -15 10 -15 6 0 10 -5 10 -11 0 -5 -4 -7 -10 -4
-16 10 -12 -12 6 -30 9 -8 14 -22 11 -29 -3 -8 1 -17 10 -20 8 -4 13 -13 10
-20 -3 -8 1 -17 10 -20 8 -4 13 -12 10 -20 -7 -19 26 -48 50 -44 15 3 18 -3
16 -37 -2 -29 0 -36 7 -25 8 13 10 12 10 -2 0 -10 -4 -18 -10 -18 -5 0 -10 -4
-10 -10 0 -5 7 -10 17 -10 9 0 13 -3 10 -7 -4 -3 1 -12 11 -19 12 -10 13 -13
3 -14 -10 0 -11 -3 -2 -14 15 -18 14 -256 -2 -256 -6 0 -7 -3 -3 -7 3 -4 -4
-13 -16 -21 -16 -9 -17 -12 -4 -7 16 5 17 3 5 -11 -15 -18 -59 -39 -90 -43 -5
0 -7 -6 -3 -13 4 -6 3 -8 -4 -4 -6 3 -15 -2 -21 -11 -8 -14 -10 -15 -11 -3 0
9 -3 11 -8 5 -4 -5 -14 -10 -22 -10 -8 0 -14 -5 -13 -11 1 -6 -23 -17 -52 -23
-30 -7 -55 -17 -55 -23 0 -6 -6 -6 -15 2 -11 9 -15 9 -15 1 0 -7 -8 -11 -17
-10 -10 2 -28 -3 -41 -9 -12 -7 -28 -12 -35 -11 -6 1 -23 -1 -37 -4 -14 -4
-38 -8 -55 -11 -40 -6 -120 -43 -104 -48 7 -2 -12 -13 -42 -24 -30 -11 -53
-25 -52 -32 2 -6 -3 -9 -11 -6 -14 5 -46 -20 -46 -37 0 -5 -7 -9 -16 -9 -8 0
-13 -4 -10 -9 3 -5 -1 -12 -10 -15 -8 -3 -12 -10 -9 -16 3 -6 0 -13 -8 -16 -7
-2 -14 -10 -15 -17 -1 -12 -9 -48 -12 -57 -1 -3 -2 -8 -1 -12 0 -5 -3 -8 -9
-8 -5 0 -7 -7 -4 -15 4 -8 1 -15 -6 -15 -9 0 -11 -10 -6 -30 3 -17 1 -30 -4
-30 -6 0 -10 -15 -10 -34 0 -19 -4 -37 -9 -41 -11 -6 -11 -255 0 -255 3 0 6
-7 6 -15 0 -8 -3 -15 -6 -15 -3 0 -7 -18 -7 -41 -1 -23 -7 -45 -14 -49 -7 -4
-11 -14 -8 -22 3 -8 0 -22 -7 -32 -7 -9 -11 -31 -8 -48 3 -18 0 -34 -7 -38 -6
-4 -12 -28 -13 -54 0 -26 -6 -46 -12 -46 -7 0 -11 -30 -11 -85 0 -52 -5 -90
-12 -97 -7 -7 -12 -26 -11 -42 1 -30 1 -30 9 -6 8 25 8 25 9 -4 1 -16 -8 -44
-20 -62 -11 -19 -18 -34 -15 -34 4 0 -5 -18 -18 -39 -14 -21 -22 -42 -18 -47
4 -4 1 -4 -5 0 -9 5 -11 -1 -7 -23 5 -23 2 -32 -9 -37 -11 -4 -15 -15 -12 -39
3 -19 -1 -40 -8 -47 -6 -7 -13 -30 -14 -52 -1 -21 -7 -44 -13 -50 -5 -7 -10
-35 -9 -62 0 -66 -3 -84 -13 -78 -4 3 -8 -6 -8 -20 0 -14 4 -26 9 -26 4 0 6
-11 3 -25 -2 -14 -8 -25 -13 -25 -5 0 -9 -5 -9 -11 0 -5 5 -7 10 -4 6 3 10 1
10 -4 0 -6 -4 -11 -9 -11 -5 0 -9 -10 -9 -22 -3 -138 -8 -192 -19 -196 -17 -5
-17 -29 -1 -35 9 -4 9 -8 3 -14 -5 -4 -10 -26 -11 -48 -2 -72 -15 -170 -24
-179 -5 -5 -6 -15 -3 -22 3 -8 0 -20 -6 -28 -6 -7 -9 -15 -6 -17 6 -7 -38 -58
-54 -61 -7 -2 -28 -18 -46 -35 -17 -18 -39 -33 -49 -33 -19 0 -22 20 -3 21 9
0 8 2 -1 6 -9 3 -2 12 20 25 18 11 37 27 41 34 5 8 12 12 18 9 5 -4 9 -1 9 5
0 6 5 8 10 5 6 -4 13 7 16 25 4 17 10 33 15 36 5 2 6 17 3 33 -4 18 0 33 11
44 9 10 12 17 6 17 -6 0 -11 5 -11 11 0 5 4 8 8 5 4 -2 7 8 6 22 -1 15 3 35 8
45 5 10 11 63 14 118 2 55 7 121 10 147 3 26 7 71 7 100 1 28 5 52 9 52 4 0 5
9 3 20 -2 11 0 18 5 15 5 -3 7 16 3 45 -4 32 -2 50 5 50 6 0 8 13 5 31 -2 17
3 48 11 70 9 21 14 39 11 39 -3 0 1 13 10 30 17 34 19 44 5 35 -9 -6 -8 4 7
43 3 9 7 19 7 22 1 3 7 15 14 28 7 12 10 27 7 32 -4 6 1 13 9 16 9 3 13 10 10
15 -3 6 0 16 6 24 6 8 9 19 5 25 -4 6 -3 9 2 8 4 -2 9 1 10 5 1 4 8 19 17 32
10 15 12 26 6 30 -6 3 -10 20 -10 36 0 17 4 28 8 25 4 -3 7 13 6 35 -1 21 2
42 7 44 4 3 6 19 2 35 -3 19 -1 30 6 30 6 0 11 12 10 28 l-1 27 -8 -25 c-7
-23 -8 -23 -9 -3 -1 12 3 24 9 28 5 3 7 12 3 20 -3 9 0 21 6 29 6 7 13 26 14
42 2 16 11 46 21 68 9 21 15 45 12 53 -3 8 -2 12 3 9 5 -3 9 4 9 17 6 264 9
324 16 336 6 10 5 12 -2 7 -15 -9 -15 -1 -1 26 6 11 13 35 16 52 3 17 10 34
15 37 7 4 6 9 -1 13 -6 4 -8 12 -5 18 4 6 8 20 9 32 1 11 3 25 4 29 0 5 7 5
14 1 7 -5 6 0 -3 11 -9 11 -10 16 -2 11 6 -4 12 -5 12 -2 0 2 3 13 6 23 5 15
4 15 -5 3 -8 -11 -11 -11 -11 -2 0 7 7 15 15 18 8 4 12 10 9 15 -8 14 35 69
54 69 15 0 15 2 2 10 -13 8 -12 10 3 10 9 0 17 5 17 10 0 6 8 14 18 17 17 7
29 15 58 41 8 8 21 11 29 8 8 -3 17 0 21 6 5 7 2 8 -7 3 -8 -5 -10 -4 -6 0 9
11 34 17 66 16 20 -1 22 1 10 15 -11 13 -11 15 2 14 31 -5 60 0 54 9 -3 6 3
10 12 10 10 0 32 2 48 5 17 2 36 5 43 5 7 1 10 6 7 11 -3 6 -1 10 4 10 6 0 11
-6 11 -12 0 -10 2 -10 8 -1 4 6 19 13 34 15 14 2 34 10 44 18 18 14 18 14 4
-4 -15 -19 -14 -19 15 -4 27 15 57 28 78 33 4 2 16 3 28 4 11 0 17 5 14 11 -4
6 1 7 11 3 12 -4 15 -3 10 5 -6 11 12 17 37 13 4 0 7 4 7 9 0 5 3 9 8 8 14 -3
42 14 36 23 -3 5 1 9 9 9 8 0 18 8 21 17 10 25 12 293 3 293 -5 0 -6 4 -2 9 3
5 1 12 -4 15 -5 4 -8 17 -7 30 2 17 -3 26 -15 29 -11 3 -19 13 -19 22 0 11 -5
15 -15 11 -10 -4 -15 1 -15 14 0 11 -5 20 -11 20 -5 0 -7 5 -4 10 4 6 1 17 -5
25 -7 8 -9 15 -4 15 4 0 0 6 -10 13 -16 12 -26 51 -30 129 -1 20 2 34 6 32 4
-3 8 2 8 10 0 8 5 18 12 22 7 5 8 3 3 -6 -5 -8 -4 -11 3 -6 11 7 6 31 -11 54
-10 12 -13 97 -5 142 5 28 15 57 29 82 5 10 6 25 3 35 -5 15 -4 16 5 3 9 -13
11 -12 12 5 2 36 4 39 27 78 13 20 28 37 33 37 5 0 14 12 19 26 6 15 14 22 22
18 6 -4 8 -3 5 3 -7 12 16 47 32 49 6 1 16 2 21 3 6 0 9 5 8 10 -4 12 53 61
71 61 8 0 20 8 28 18 8 9 11 11 7 3 -4 -8 -2 -12 5 -10 7 3 12 9 11 14 -3 18
49 28 99 18z m-1162 -2055 c-3 -7 -5 -2 -5 12 0 14 2 19 5 13 2 -7 2 -19 0
-25z m2350 -130 c-3 -7 -5 -2 -5 12 0 14 2 19 5 13 2 -7 2 -19 0 -25z m-410
-490 c2 6 10 12 16 12 5 0 7 -3 4 -7 -4 -3 0 -17 8 -29 8 -13 16 -39 17 -59 2
-19 6 -35 10 -35 3 0 5 -8 4 -17 -2 -10 1 -21 6 -24 5 -3 10 -19 11 -36 1 -17
6 -29 11 -25 5 3 6 -5 3 -18 -3 -13 1 -33 10 -47 18 -27 23 -54 26 -128 2 -27
6 -56 10 -62 5 -8 3 -13 -5 -13 -8 0 -9 -3 -3 -8 11 -8 16 -34 18 -104 1 -27
5 -48 8 -48 4 0 6 -18 4 -40 -2 -22 0 -38 5 -35 11 6 21 -21 14 -39 -3 -7 2
-16 11 -20 12 -4 15 -13 11 -30 -4 -16 0 -30 10 -40 8 -9 12 -21 9 -26 -4 -6
-1 -17 5 -25 7 -8 9 -15 4 -15 -5 0 -2 -6 7 -13 18 -13 17 -12 25 -44 4 -13
10 -20 15 -17 5 3 6 -2 3 -10 -3 -9 -1 -16 6 -16 6 0 9 -4 6 -9 -8 -12 17 -59
40 -75 17 -13 16 -14 -4 -25 -18 -10 -22 -9 -22 4 0 8 -5 15 -11 15 -5 0 -7 5
-4 10 3 6 0 13 -9 16 -8 3 -13 11 -10 18 2 6 -6 22 -20 35 -15 14 -22 30 -19
42 3 12 -1 21 -11 25 -10 4 -14 13 -11 24 3 11 -1 20 -11 24 -9 4 -14 12 -10
21 3 9 2 23 -3 33 -5 9 -13 26 -17 37 -34 94 -39 113 -30 108 6 -4 6 0 -1 8
-7 8 -12 24 -13 34 -1 55 -5 75 -14 75 -6 0 -5 5 2 12 15 15 16 32 2 23 -10
-6 -14 29 -13 147 0 37 -4 65 -8 63 -10 -7 -22 32 -14 45 3 5 1 10 -4 10 -6 0
-11 17 -11 38 0 27 -3 33 -10 22 -8 -12 -10 -9 -10 13 0 15 1 29 3 30 1 2 -4
11 -12 20 -7 10 -11 17 -7 17 3 0 -2 22 -13 49 -13 35 -15 48 -6 45 7 -3 16 0
20 6 3 6 3 10 -2 9 -24 -4 -43 2 -37 13 4 7 3 8 -4 4 -7 -4 -12 -17 -12 -30 0
-12 -6 -28 -12 -34 -7 -7 -14 -22 -14 -32 -4 -56 -4 -56 -14 -40 -8 12 -10 10
-10 -8 0 -16 4 -21 13 -16 6 4 5 -1 -5 -12 -9 -10 -16 -35 -16 -54 0 -19 -4
-48 -8 -65 -7 -31 -9 -329 -2 -355 2 -8 8 -21 13 -29 5 -10 4 -16 -3 -19 -7
-2 -12 -8 -12 -13 0 -6 4 -8 8 -5 5 3 8 -13 7 -34 -1 -22 2 -40 6 -40 5 0 6
-43 3 -95 -4 -71 -3 -95 6 -95 9 0 10 -3 1 -13 -6 -8 -8 -16 -6 -19 7 -7 17
-49 17 -70 -1 -10 3 -20 9 -23 5 -4 9 -12 9 -18 0 -7 -4 -6 -10 3 -8 13 -10
13 -10 -1 0 -9 6 -19 13 -22 7 -2 14 -19 15 -37 1 -18 6 -38 9 -44 4 -6 9 -20
10 -30 2 -11 8 -25 13 -31 6 -7 7 -26 4 -44 -5 -24 -2 -35 11 -45 11 -8 16
-20 12 -29 -3 -8 0 -38 8 -66 7 -28 11 -51 8 -51 -2 0 3 -7 11 -16 9 -8 16
-21 16 -27 0 -7 -4 -6 -10 3 -8 13 -10 12 -10 -2 0 -10 4 -18 8 -18 8 0 10
-14 15 -80 1 -16 5 -30 10 -30 12 0 8 -28 -5 -33 -10 -3 -8 -9 5 -24 19 -21
23 -38 7 -28 -5 3 -10 -1 -10 -10 0 -9 3 -14 8 -12 7 5 14 -134 15 -308 1 -49
5 -93 11 -97 6 -4 5 -12 -3 -21 -9 -12 -9 -16 1 -19 10 -4 10 -10 1 -30 -6
-14 -9 -29 -5 -32 10 -11 10 -246 -1 -246 -5 0 -3 -8 4 -17 12 -15 12 -16 -1
-8 -12 6 -13 5 -2 -6 14 -15 17 -59 4 -59 -5 0 -9 -26 -9 -57 -1 -148 -7 -220
-20 -240 -11 -18 -11 -23 -1 -24 10 0 10 -2 1 -6 -15 -6 -17 -33 -3 -33 6 0
10 -5 10 -11 0 -5 -5 -7 -12 -3 -8 5 -9 2 -5 -9 4 -10 1 -17 -6 -18 -9 0 -9
-2 1 -6 6 -2 12 -9 12 -14 0 -6 -4 -7 -10 -4 -5 3 -10 0 -10 -9 0 -8 -3 -22
-7 -32 -5 -12 -3 -15 6 -9 9 5 8 -1 -2 -16 -17 -27 -20 -159 -3 -171 6 -4 11
-35 12 -70 2 -35 5 -103 7 -153 3 -54 1 -95 -5 -102 -6 -7 -6 -13 -1 -13 5 0
9 -9 9 -19 0 -11 -4 -17 -8 -15 -4 3 -8 0 -8 -5 0 -6 5 -11 11 -11 6 0 9 -9 6
-20 -3 -11 -1 -20 4 -20 5 0 9 -9 9 -21 0 -13 -4 -18 -12 -13 -7 4 -4 -2 6
-14 14 -17 16 -22 5 -22 -8 0 -10 -3 -4 -8 6 -4 11 -12 12 -18 1 -6 5 -24 8
-40 20 -97 23 -554 4 -554 -3 0 -7 -23 -8 -52 -1 -29 -7 -56 -14 -60 -6 -4 -8
-8 -3 -8 5 0 2 -8 -5 -17 -10 -11 -10 -14 -1 -9 6 4 12 2 12 -3 0 -6 -4 -11
-10 -11 -5 0 -7 -7 -4 -15 4 -8 1 -15 -6 -15 -8 0 -10 -9 -6 -28 5 -20 4 -23
-4 -12 -9 13 -10 13 -11 0 -2 -45 -9 -74 -20 -80 -6 -4 -9 -14 -7 -21 3 -8 -1
-27 -9 -42 -8 -15 -11 -37 -8 -48 4 -12 0 -30 -10 -45 -9 -13 -13 -29 -9 -35
4 -6 0 -15 -7 -20 -12 -7 -11 -9 1 -9 13 0 13 -2 1 -9 -9 -6 -15 -30 -16 -64
-1 -30 -6 -61 -11 -68 -12 -21 -16 -262 -4 -254 6 4 10 -8 10 -29 0 -19 -6
-36 -12 -38 -10 -4 -10 -11 -2 -29 6 -13 10 -33 8 -44 -11 -92 -11 -104 -1
-102 6 1 13 -9 15 -23 2 -14 8 -30 13 -36 5 -6 7 -19 3 -28 -4 -11 -1 -16 10
-16 9 0 16 -6 16 -14 0 -7 7 -19 15 -26 8 -7 15 -21 15 -31 0 -11 4 -19 10
-19 5 0 12 -16 16 -35 3 -19 10 -35 14 -35 11 0 20 -39 10 -45 -12 -8 -17 -84
-5 -89 5 -3 0 -8 -12 -11 -13 -4 -23 -11 -23 -16 0 -18 -50 -61 -65 -56 -8 4
-14 1 -12 -6 1 -7 -5 -12 -13 -12 -8 0 -18 -4 -22 -10 -5 -6 -8 -5 -8 3 0 7
-5 10 -11 6 -7 -4 -10 1 -7 12 2 12 13 19 33 21 18 1 40 14 58 33 15 16 33 30
38 30 6 0 8 4 5 9 -3 5 1 14 9 21 8 7 15 18 15 24 0 6 -5 4 -10 -4 -8 -11 -10
-3 -7 28 2 23 0 45 -4 48 -5 3 -9 11 -9 17 0 7 4 6 10 -3 5 -8 10 -12 10 -8 0
15 -58 97 -64 91 -4 -4 -4 0 0 10 3 10 1 17 -5 17 -6 0 -11 10 -11 23 0 15 -3
18 -8 9 -9 -14 -38 62 -33 87 1 7 -2 10 -8 7 -6 -4 -9 6 -9 22 1 16 -3 35 -8
43 -13 22 -13 37 0 48 8 7 11 36 9 88 -2 43 -3 88 -3 101 0 13 -4 21 -9 17
-12 -7 -12 72 0 103 6 16 6 21 -2 16 -11 -6 -10 -2 8 59 3 12 6 37 6 55 0 17
3 32 6 32 4 0 8 11 9 25 3 45 5 55 11 55 4 0 6 12 5 27 0 16 3 31 9 34 5 4 11
28 13 55 2 26 8 50 13 53 4 3 7 19 5 36 -2 20 0 25 6 15 7 -11 10 -8 15 11 3
14 5 29 4 35 -1 5 -1 18 0 29 1 17 3 18 12 5 8 -12 10 -10 5 9 -3 14 2 40 11
58 8 18 13 43 10 55 -3 11 0 33 7 47 8 14 12 43 11 63 -2 28 1 35 11 31 17 -6
18 9 2 26 -10 11 -10 13 0 7 7 -5 12 -1 12 9 0 9 -4 13 -10 10 -5 -3 -10 -1
-10 4 0 6 3 11 8 11 4 0 7 72 7 159 0 88 -3 157 -7 155 -5 -3 -8 2 -8 11 0 9
5 13 10 10 6 -3 10 3 10 14 0 12 -5 21 -11 21 -5 0 -7 -4 -4 -10 3 -5 1 -10
-4 -10 -7 0 -9 14 -6 34 2 19 -1 50 -6 68 -17 55 -21 85 -9 68 5 -8 10 -10 10
-5 0 6 -5 16 -12 23 -7 7 -8 12 -4 12 5 0 3 7 -4 15 -9 10 -9 15 -1 15 6 0 11
5 11 11 0 5 -4 7 -10 4 -6 -3 -10 2 -11 12 0 10 -1 97 -2 195 -1 97 -5 174 -9
171 -5 -2 -8 3 -8 11 0 9 5 16 12 16 7 0 4 6 -5 13 -14 10 -16 27 -14 90 2 51
7 81 16 86 8 5 11 20 7 43 -3 20 1 45 9 62 17 32 20 60 5 51 -5 -3 -10 -2 -10
4 0 5 5 13 10 16 6 4 8 10 5 15 -3 5 0 19 7 31 11 18 11 22 0 26 -10 4 -10 8
0 21 11 13 11 14 0 8 -12 -7 -12 -4 -1 15 10 18 13 116 13 419 0 366 -4 471
-20 535 -4 16 -2 25 5 25 9 0 9 5 0 21 -6 12 -9 45 -7 75 3 31 1 54 -5 54 -5
0 -3 8 4 17 8 10 9 14 2 10 -14 -9 -29 73 -19 100 4 9 2 19 -4 23 -6 4 -12 22
-13 41 -1 19 -9 40 -17 47 -8 8 -10 11 -3 8 6 -4 14 -2 18 4 3 6 -1 13 -9 16
-11 4 -14 13 -9 32 4 16 2 23 -5 18 -6 -4 -8 2 -4 16 3 15 2 19 -7 14 -8 -6
-10 4 -5 35 5 31 4 40 -5 35 -8 -6 -10 0 -5 18 5 20 2 26 -10 26 -10 0 -13 6
-9 15 3 9 -2 35 -11 59 -9 24 -16 48 -15 52 5 28 -2 54 -13 48 -8 -5 -9 0 -6
14 4 12 3 20 -1 17 -4 -2 -8 12 -9 31 -1 25 2 33 11 27 8 -4 7 -1 -2 10 -9 11
-10 17 -2 17 6 0 11 9 11 21 0 11 -4 18 -8 15 -9 -6 -17 86 -15 172 1 29 -3
50 -8 46 -5 -3 -9 2 -9 11 0 10 5 14 13 10 6 -4 4 0 -5 7 -14 12 -16 38 -15
212 0 113 5 200 11 203 5 3 6 1 2 -5 -4 -7 -3 -12 3 -12 6 0 10 25 9 61 -1 41
3 63 11 69 8 4 10 13 7 19 -4 6 -2 11 4 11 6 0 8 5 5 10 -3 6 -3 16 2 23 4 6
9 21 10 31 2 11 8 25 13 31 5 7 7 15 3 18 -3 4 -2 7 4 7 6 0 13 10 17 23 5 19
8 20 17 7 8 -11 12 -12 16 -2z m-1521 -64 c-3 -7 2 -17 10 -22 8 -5 16 -18 17
-30 0 -12 8 -24 16 -27 12 -5 13 -8 2 -14 -10 -7 -10 -11 1 -22 21 -21 35 -70
31 -104 -2 -21 -1 -26 6 -16 7 11 10 10 14 -5 3 -11 5 -34 5 -52 1 -18 5 -39
10 -45 11 -14 8 -239 -3 -257 -5 -9 -4 -11 3 -6 7 4 12 1 12 -8 0 -8 -5 -16
-11 -18 -7 -2 -12 -34 -13 -78 -2 -45 -7 -74 -13 -73 -5 1 -10 -16 -11 -38 -1
-22 2 -38 6 -35 4 2 8 -4 8 -15 0 -10 -4 -19 -8 -19 -13 0 -9 -60 5 -61 9 0 9
-2 0 -6 -10 -3 -10 -10 -2 -25 8 -16 8 -19 -1 -13 -9 5 -10 2 -6 -13 4 -12 1
-26 -9 -35 -8 -9 -15 -22 -15 -29 0 -10 3 -9 10 2 8 13 10 13 10 -2 0 -9 -6
-23 -14 -31 -8 -8 -23 -48 -32 -88 -10 -41 -22 -77 -28 -81 -6 -4 -4 -13 5
-24 8 -10 9 -15 3 -11 -8 4 -12 -3 -13 -21 -1 -59 -2 -67 -13 -74 -7 -3 -11
-24 -11 -45 1 -35 -15 -103 -37 -160 -6 -14 -5 -25 1 -28 5 -4 6 -12 2 -18 -4
-7 -9 -37 -10 -67 -3 -65 -6 -81 -16 -97 -5 -7 -5 -13 0 -13 4 0 8 -11 8 -25
0 -14 -3 -25 -6 -25 -4 0 -6 -11 -6 -25 -1 -13 3 -22 8 -19 13 8 11 -13 -3
-36 -11 -17 -10 -22 2 -30 8 -5 10 -10 5 -10 -7 0 -10 -39 -9 -112 1 -69 -1
-105 -6 -93 -7 17 -9 15 -9 -12 -1 -18 3 -33 8 -33 5 0 8 -18 8 -39 0 -22 -4
-38 -9 -35 -4 3 -8 -2 -8 -10 0 -9 3 -16 8 -16 4 0 8 -23 9 -50 0 -27 -3 -47
-8 -44 -5 3 -9 -2 -9 -11 0 -9 5 -13 11 -9 8 5 8 1 0 -14 -6 -11 -11 -31 -10
-44 1 -23 1 -23 9 2 7 21 8 19 9 -17 1 -28 -3 -43 -11 -44 -8 0 -9 -2 -2 -5 6
-3 9 -37 8 -89 -1 -47 2 -85 7 -85 5 0 9 -5 9 -11 0 -5 -4 -7 -10 -4 -5 3 -10
-3 -10 -15 0 -12 4 -19 8 -16 10 6 15 -49 14 -136 0 -35 4 -58 10 -58 7 0 6
-5 -1 -14 -9 -11 -9 -15 0 -18 7 -2 13 -13 13 -24 1 -11 6 -26 11 -34 6 -8 10
-52 10 -96 1 -63 -2 -81 -12 -77 -8 3 -13 -3 -13 -17 0 -13 4 -19 11 -14 8 4
8 1 2 -12 -5 -11 -11 -41 -12 -69 -2 -27 -7 -51 -12 -53 -12 -5 -12 -32 1 -32
12 0 9 -22 -5 -33 -6 -6 -6 -10 3 -14 6 -2 12 -18 12 -34 0 -18 -4 -28 -10
-24 -5 3 -10 1 -10 -4 0 -6 6 -11 13 -12 9 0 9 -2 0 -5 -9 -4 -9 -13 -2 -30
11 -30 11 -37 2 -31 -5 3 -9 -9 -10 -26 -2 -24 0 -28 7 -17 8 13 10 12 10 -2
0 -10 -4 -18 -10 -18 -5 0 -7 -13 -5 -29 2 -16 -3 -41 -11 -57 -12 -22 -12
-29 -2 -36 10 -6 10 -8 0 -8 -8 0 -12 -9 -11 -22 1 -13 -2 -39 -8 -58 -15 -53
-9 -450 7 -460 9 -5 11 -20 7 -43 -3 -21 -1 -37 5 -39 5 -2 10 -21 11 -43 0
-22 5 -46 11 -54 8 -11 8 -13 -1 -7 -19 11 -15 -5 4 -19 14 -11 15 -17 5 -39
-6 -14 -8 -25 -4 -25 26 4 34 -3 28 -26 -5 -18 -2 -27 10 -32 13 -5 13 -7 2
-14 -10 -7 -11 -9 0 -9 7 0 10 -5 7 -10 -4 -6 0 -22 9 -35 18 -27 21 -39 8
-31 -5 3 -9 -1 -9 -9 0 -8 5 -13 10 -12 9 2 14 -17 20 -68 1 -11 8 -26 16 -34
8 -9 11 -27 8 -48 -3 -18 -1 -35 4 -39 6 -3 8 -17 5 -30 -4 -16 -2 -24 6 -25
10 0 10 -2 1 -6 -7 -2 -13 -11 -13 -19 0 -9 4 -13 9 -10 16 10 20 -103 5 -152
-17 -56 -16 -55 -4 -47 5 3 10 1 10 -4 0 -6 -4 -11 -9 -11 -5 0 -7 -23 -4 -51
3 -40 1 -49 -9 -43 -10 6 -10 5 -2 -7 15 -20 24 -59 13 -59 -5 0 -9 -5 -9 -11
0 -5 4 -7 10 -4 12 8 13 -5 0 -25 -6 -9 -5 -17 3 -22 9 -6 9 -8 -1 -8 -7 0
-11 -4 -8 -9 3 -5 -1 -14 -9 -21 -16 -14 -21 -35 -5 -25 5 3 3 -7 -5 -22 -8
-15 -15 -34 -15 -40 0 -7 -5 -13 -11 -13 -5 0 -7 -4 -4 -10 3 -5 1 -10 -4 -10
-6 0 -11 -6 -11 -14 0 -8 -7 -17 -16 -20 -8 -3 -12 -10 -9 -16 3 -5 -1 -10 -9
-10 -9 0 -16 -7 -16 -15 0 -8 -4 -15 -8 -15 -5 0 -9 -38 -10 -85 -2 -73 0 -85
16 -94 11 -6 23 -7 27 -3 5 4 5 1 1 -6 -8 -13 32 -34 47 -25 4 2 6 -1 5 -9 -2
-8 4 -12 16 -10 12 2 16 -1 11 -10 -6 -10 -5 -11 6 -1 10 11 19 8 43 -15 16
-15 25 -20 21 -12 -6 12 -5 13 6 3 16 -16 30 -17 26 -1 -1 6 10 12 25 13 15 1
26 -1 24 -4 -2 -3 7 -14 20 -24 13 -10 24 -13 24 -7 0 6 4 9 9 6 5 -3 14 1 21
9 7 8 16 12 21 9 5 -3 9 1 9 8 0 7 9 19 21 26 11 7 18 19 15 27 -2 7 2 19 9
25 8 7 12 16 10 21 -3 4 3 12 12 18 14 8 15 10 3 11 -9 0 -11 3 -5 8 13 9 14
101 1 99 -5 -1 -10 26 -11 61 0 37 4 62 10 62 10 0 13 33 15 148 0 34 5 62 10
62 6 0 10 5 10 11 0 5 -4 8 -9 5 -10 -7 -9 20 2 30 4 4 7 17 7 28 0 17 -2 18
-10 6 -7 -11 -9 -6 -9 20 0 53 -5 74 -18 83 -19 12 -16 27 5 21 16 -5 16 -5 1
8 -11 9 -17 32 -18 68 -1 30 -3 69 -3 87 -1 18 -5 30 -10 27 -4 -3 -8 2 -8 11
0 9 5 13 11 9 7 -4 7 1 -1 16 -7 13 -9 33 -4 48 12 45 13 52 3 52 -5 0 -9 5
-9 11 0 5 6 7 13 3 10 -6 10 -4 0 7 -7 7 -13 18 -13 24 0 5 5 3 10 -5 8 -13
10 -12 10 3 0 9 -4 17 -10 17 -12 0 -9 22 4 32 6 3 10 29 11 56 1 28 6 56 11
64 6 7 11 24 12 38 1 14 6 26 11 28 6 2 8 17 4 33 -4 21 -2 29 8 29 10 0 14
12 13 38 0 20 4 42 8 49 5 6 5 14 -2 18 -5 3 -10 12 -10 18 0 8 3 8 9 -1 11
-18 18 101 16 260 -1 92 -6 132 -16 145 -9 11 -10 14 -1 9 7 -4 12 -1 12 9 0
9 -5 13 -11 10 -7 -5 -9 3 -6 24 3 17 2 31 -3 31 -4 0 -6 9 -3 20 3 11 1 20
-4 20 -6 0 -9 12 -6 28 3 23 2 24 -6 7 -7 -14 -10 -16 -10 -5 -1 9 5 22 12 29
10 11 9 13 0 7 -10 -5 -13 11 -13 68 0 44 4 76 10 76 6 0 10 8 10 18 0 14 -2
15 -10 2 -5 -8 -10 -10 -10 -4 0 6 7 17 15 24 8 7 15 18 15 24 0 6 -5 4 -10
-4 -7 -10 -10 -11 -10 -2 0 7 6 15 14 18 8 3 11 15 8 31 -3 16 1 30 9 37 8 6
15 21 16 34 2 57 3 58 13 42 7 -11 9 -1 6 33 -2 26 2 71 10 100 17 63 16 60 4
52 -5 -3 -10 -2 -10 4 0 5 5 13 10 16 6 4 8 11 5 16 -4 5 -1 9 5 9 8 0 10 9 6
24 -4 16 -1 26 9 30 9 3 15 18 15 36 0 16 4 30 9 30 4 0 9 28 10 62 1 37 6 65
14 70 9 6 9 10 -1 20 -16 16 -16 42 1 32 8 -6 8 -3 -2 9 -8 10 -10 24 -6 34 4
10 8 34 9 53 1 19 5 45 10 58 5 14 3 28 -4 37 -7 8 -9 15 -4 15 9 0 11 11 15
105 2 28 7 53 13 57 16 10 16 37 0 31 -8 -3 -14 0 -14 6 0 6 8 11 18 12 10 0
12 3 4 6 -6 2 -9 10 -5 16 6 10 10 37 12 85 1 13 5 20 11 17 6 -4 7 5 4 23 -4
22 -2 31 11 36 14 5 15 9 6 20 -8 10 -9 16 -1 21 6 3 7 11 4 17 -4 6 -2 8 4 4
12 -7 23 20 18 49 -2 11 0 25 5 31 5 6 10 35 13 64 2 30 9 56 15 58 6 2 11 15
11 28 0 16 -4 23 -11 18 -8 -4 -9 5 -4 32 13 72 13 114 1 114 -6 0 -4 5 4 10
12 8 12 10 1 10 -11 0 -11 3 -1 15 10 12 10 15 -1 15 -10 0 -10 3 -1 12 16 16
129 18 142 3 5 -6 3 -23 -7 -44 -12 -23 -13 -35 -5 -40 12 -7 11 -49 -2 -69
-4 -7 -3 -18 2 -25 6 -7 12 -37 15 -67 3 -30 6 -55 7 -55 2 0 4 -16 5 -35 6
-73 17 -123 31 -138 8 -8 13 -21 10 -29 -3 -8 0 -21 8 -29 8 -8 13 -26 12 -41
-2 -17 3 -33 13 -40 14 -12 14 -12 0 -8 -10 4 -16 0 -16 -9 0 -8 4 -13 9 -10
4 3 8 -1 9 -8 3 -43 7 -67 17 -101 6 -21 6 -35 1 -32 -5 4 -9 1 -9 -4 0 -6 4
-11 9 -11 5 0 7 -18 4 -41 -4 -29 -2 -44 8 -50 12 -7 12 -9 -1 -9 -13 0 -13
-2 -1 -9 11 -7 14 -41 15 -145 1 -75 4 -136 7 -136 4 0 7 -10 7 -22 -1 -49 6
-84 20 -100 8 -10 12 -28 10 -43 -3 -14 -1 -25 4 -25 5 0 6 -4 3 -10 -3 -5 -1
-10 6 -10 7 0 9 -3 6 -7 -4 -3 -1 -13 6 -21 10 -13 9 -14 -3 -7 -12 6 -13 5
-3 -5 7 -8 9 -25 6 -43 -4 -21 -3 -28 5 -23 8 5 12 0 12 -13 0 -12 -6 -21 -12
-22 -10 0 -10 -2 0 -6 6 -2 10 -9 6 -14 -3 -5 -1 -9 3 -9 5 0 9 -21 9 -46 1
-25 6 -50 13 -57 6 -6 11 -16 11 -22 0 -5 -5 -3 -10 5 -6 9 -10 10 -10 3 0 -6
5 -15 11 -18 6 -4 8 -13 5 -21 -3 -7 -1 -16 4 -19 5 -3 6 -13 3 -22 -4 -10 -2
-14 5 -9 11 6 18 -8 26 -56 3 -15 8 -33 11 -39 12 -18 15 -89 5 -89 -6 0 -10
5 -10 12 0 6 -3 8 -6 5 -4 -4 -1 -13 6 -22 7 -9 8 -15 2 -15 -11 0 -11 -18 2
-38 4 -7 4 -18 -1 -25 -5 -7 -10 -23 -11 -36 0 -13 -6 -27 -12 -31 -7 -4 -10
-18 -9 -31 2 -13 -1 -31 -6 -38 -5 -8 -9 -42 -10 -75 -1 -34 -5 -70 -10 -80
-6 -13 -5 -21 3 -24 7 -2 12 -8 12 -13 0 -6 -4 -7 -10 -4 -6 4 -10 -8 -10 -30
0 -20 4 -34 9 -31 5 4 8 -29 6 -76 -2 -52 2 -98 11 -123 16 -48 17 -58 4 -50
-5 3 -10 2 -10 -4 0 -5 4 -12 10 -16 5 -3 6 -13 3 -22 -4 -11 -3 -14 5 -9 8 5
12 -4 12 -29 0 -26 3 -34 12 -29 9 5 8 2 -1 -9 -12 -15 -12 -17 2 -11 12 4 15
-1 13 -28 -2 -18 2 -42 7 -53 25 -47 26 -406 2 -446 -5 -8 -4 -10 3 -5 16 10
15 -23 -2 -53 -7 -13 -11 -33 -8 -44 3 -13 1 -18 -6 -13 -6 3 -13 2 -17 -4 -3
-5 -1 -10 5 -10 6 0 8 -5 3 -12 -12 -20 -14 -121 -2 -128 13 -9 17 -65 4 -63
-6 1 -12 -7 -12 -18 -1 -11 2 -17 8 -14 5 4 9 -1 9 -10 0 -9 -4 -13 -10 -10
-5 3 -10 -1 -10 -9 0 -19 17 -30 23 -14 4 12 5 -1 8 -84 0 -21 5 -35 10 -32 5
3 9 -2 9 -10 0 -9 -5 -16 -11 -16 -6 0 -10 -10 -9 -22 1 -13 1 -25 0 -28 -1
-3 -3 -27 -5 -54 -2 -33 2 -54 12 -64 12 -12 12 -16 2 -23 -10 -6 -9 -10 4
-15 10 -4 16 -13 13 -20 -3 -7 0 -16 6 -20 7 -5 8 -2 3 6 -5 9 -4 11 4 6 6 -4
10 -15 9 -23 -2 -9 12 -24 32 -35 19 -11 36 -24 38 -29 3 -8 14 -1 53 34 17
16 22 16 40 3 15 -10 17 -15 7 -20 -14 -7 18 0 52 10 27 8 27 -21 1 -36 -23
-12 -44 -13 -37 -2 6 10 -40 10 -49 0 -4 -4 -14 -4 -23 -1 -11 5 -13 3 -7 -7
6 -10 0 -12 -29 -7 -39 6 -95 44 -95 65 -1 7 -5 10 -11 7 -6 -4 -10 5 -10 19
0 14 -5 25 -11 23 -6 -1 -15 8 -20 21 -5 14 -5 22 2 22 6 0 3 7 -5 16 -9 8
-14 20 -10 25 3 6 1 15 -4 22 -12 14 -13 29 -2 42 11 14 10 194 -1 201 -5 3
-7 10 -4 15 4 5 1 9 -6 9 -8 0 -7 5 2 17 8 9 9 14 4 11 -6 -4 -11 2 -11 13 0
10 5 19 11 19 5 0 3 5 -5 10 -12 7 -12 10 -1 10 9 0 11 6 6 18 -12 27 -12 155
0 171 7 11 7 13 -2 7 -17 -10 -16 0 2 28 8 12 17 47 19 77 2 30 4 60 5 67 1 8
6 10 14 6 8 -5 7 -2 -2 10 -11 13 -11 20 -3 28 16 16 15 41 0 32 -10 -6 -10
-4 -2 7 6 8 10 33 9 56 -1 23 1 41 4 39 3 -2 6 13 6 35 0 21 -3 39 -7 39 -3 0
-5 17 -3 38 5 47 -3 75 -18 65 -7 -4 -7 -1 1 9 11 14 11 21 -3 42 -10 14 -14
26 -10 26 4 0 0 11 -9 25 -18 28 -21 39 -6 30 16 -10 12 12 -6 29 -8 9 -11 16
-5 16 6 0 8 7 5 15 -4 8 -10 12 -15 9 -6 -3 -8 6 -5 20 3 14 0 29 -6 32 -6 4
-5 10 3 15 9 5 10 9 2 9 -6 0 -10 13 -9 30 1 17 -3 30 -8 31 -6 0 -5 3 2 6 16
6 15 34 -2 58 -10 15 -13 54 -11 150 3 154 2 148 16 140 6 -4 5 2 -3 14 -10
17 -10 25 -1 41 7 10 10 27 7 37 -5 15 -4 16 6 3 9 -12 10 -10 5 13 -4 19 -2
26 5 22 5 -3 10 -1 10 4 0 6 -4 11 -9 11 -5 0 -7 9 -4 20 3 11 10 20 15 20 5
0 6 16 2 36 -5 27 -4 35 5 30 6 -4 11 -2 11 3 0 6 -4 11 -10 11 -5 0 -10 5
-10 11 0 5 6 7 13 3 9 -5 9 -4 0 6 -10 11 -10 17 0 29 9 12 9 13 0 7 -8 -4
-13 -1 -13 9 0 10 5 13 12 9 7 -5 8 -3 2 7 -4 8 -7 26 -5 41 1 16 -2 28 -8 28
-6 0 -7 7 -4 17 4 10 2 14 -4 10 -12 -7 -27 49 -17 65 3 5 -2 18 -12 29 -9 10
-15 19 -11 19 3 0 -1 26 -8 58 -7 31 -12 73 -10 92 1 19 -2 46 -7 60 -6 14
-10 38 -10 55 1 16 -5 33 -11 37 -7 4 -12 20 -13 35 0 15 -6 38 -13 51 -6 12
-9 27 -5 33 4 6 1 14 -5 18 -14 9 -23 51 -11 51 6 0 6 9 1 23 -5 12 -7 55 -6
95 2 39 0 74 -4 76 -4 3 -7 30 -6 60 1 30 -2 53 -7 50 -4 -3 -8 5 -8 18 0 19
2 20 11 8 8 -12 9 -10 5 10 -3 14 -6 31 -6 38 0 7 -5 10 -10 7 -13 -8 -8 18 5
27 6 5 6 8 -1 8 -6 0 -12 19 -13 43 -5 75 -6 82 -12 92 -3 6 -7 28 -8 50 -2
22 -7 45 -12 51 -5 6 -6 14 -2 17 3 4 2 7 -4 7 -6 0 -10 8 -10 18 0 36 -3 43
-15 36 -9 -5 -9 -2 1 9 9 11 10 17 2 17 -6 0 -11 18 -11 43 0 27 -3 37 -9 29
-11 -18 -21 21 -17 62 2 16 -3 59 -10 95 -17 79 -17 74 -3 65 8 -4 8 0 0 15
-9 16 -9 21 1 21 9 0 9 3 -2 10 -13 9 -13 10 0 10 13 0 13 1 0 10 -10 6 -11
10 -2 10 6 0 12 5 12 11 0 5 -5 7 -11 3 -8 -4 -8 -1 -1 12 9 18 6 19 -31 19
l-42 0 -2 -130 c-1 -71 -4 -146 -7 -165 -4 -19 -7 -50 -9 -68 -1 -18 -7 -36
-14 -40 -6 -4 -11 -14 -11 -22 2 -36 -3 -61 -11 -56 -5 4 -7 -3 -4 -14 3 -11
1 -20 -5 -20 -6 0 -8 -13 -5 -31 3 -23 1 -29 -8 -23 -9 5 -11 2 -6 -8 3 -9 3
-19 -1 -22 -6 -7 -12 -50 -15 -108 -1 -21 -4 -38 -8 -38 -3 0 -6 -27 -7 -61 0
-34 -5 -66 -11 -72 -6 -6 -11 -18 -11 -26 0 -14 1 -14 10 -1 8 12 10 9 10 -13
0 -16 -4 -26 -10 -22 -5 3 -10 1 -10 -4 0 -6 5 -11 10 -11 6 0 10 -5 10 -11 0
-5 -4 -7 -10 -4 -6 4 -8 -17 -5 -59 3 -45 1 -66 -6 -66 -8 0 -8 -4 0 -14 8
-10 9 -16 1 -21 -5 -3 -10 -12 -10 -18 0 -7 4 -6 10 3 5 8 10 11 10 7 0 -4 -8
-20 -17 -34 -10 -15 -12 -24 -6 -20 10 6 11 2 4 -16 -5 -14 -7 -33 -5 -44 3
-10 -2 -32 -10 -48 -9 -17 -16 -40 -16 -52 0 -13 -9 -32 -20 -43 -19 -19 -29
-57 -12 -46 5 3 9 -1 9 -9 0 -8 -4 -15 -8 -15 -4 0 -6 -16 -4 -35 2 -21 -1
-35 -8 -35 -8 0 -8 -3 0 -11 9 -9 8 -17 -2 -33 -8 -12 -12 -36 -10 -55 2 -18
-1 -43 -8 -55 -12 -20 -13 -27 -16 -54 0 -7 -5 -10 -11 -7 -5 3 -10 -1 -10
-10 0 -10 5 -13 13 -9 6 4 4 -2 -6 -13 -9 -11 -14 -23 -10 -26 3 -4 1 -7 -5
-7 -7 0 -12 -5 -12 -11 0 -5 5 -7 10 -4 6 3 10 -1 10 -10 0 -9 -3 -14 -7 -12
-5 3 -8 -30 -8 -73 0 -43 3 -76 7 -74 4 3 6 -11 4 -30 -1 -19 1 -33 5 -31 4 3
9 -6 11 -20 3 -14 1 -25 -4 -25 -5 0 -1 -14 7 -31 9 -17 17 -59 18 -99 1 -37
5 -66 10 -63 4 2 7 -1 7 -6 0 -6 -3 -11 -7 -11 -12 0 -15 -78 -3 -85 5 -3 10
-14 9 -23 0 -14 -2 -13 -8 3 -5 13 -9 -5 -9 -50 -3 -147 -6 -185 -14 -185 -4
0 -4 -7 -1 -17 4 -9 2 -14 -3 -10 -5 3 -11 -3 -12 -14 -4 -42 -6 -48 -14 -43
-5 4 -6 -9 -3 -30 5 -22 3 -36 -3 -36 -5 0 -10 -16 -9 -36 1 -19 -4 -38 -9
-42 -11 -7 -14 -21 -14 -82 0 -26 -3 -31 -10 -20 -8 13 -10 12 -10 -2 0 -10 3
-18 8 -18 9 0 9 -106 0 -116 -4 -4 -3 -14 4 -21 9 -11 9 -19 1 -33 -8 -11 -8
-21 -2 -27 6 -6 11 -38 13 -71 2 -34 9 -69 16 -77 11 -14 11 -18 1 -25 -9 -5
-10 -10 -3 -14 6 -4 8 -14 5 -23 -5 -12 -3 -14 7 -8 10 6 12 4 7 -8 -3 -9 -2
-19 3 -22 6 -4 10 -11 10 -16 0 -6 -4 -7 -10 -4 -6 4 -10 -10 -9 -37 1 -41 2
-42 10 -13 6 21 7 13 3 -30 -2 -33 -10 -62 -15 -64 -8 -2 -8 -6 0 -11 14 -8
15 -25 5 -102 -4 -35 -11 -55 -17 -51 -6 3 -7 1 -4 -4 4 -6 2 -24 -4 -40 -7
-21 -6 -38 2 -59 16 -38 19 -147 5 -156 -6 -4 -12 -12 -12 -18 -1 -5 -3 -12
-4 -15 -1 -3 -3 -11 -4 -17 -1 -7 -8 -12 -15 -10 -8 2 -11 -3 -8 -13 4 -8 1
-15 -5 -15 -6 0 -8 -3 -5 -7 9 -9 -33 -53 -50 -53 -7 0 -13 -5 -13 -11 0 -6
-9 -9 -20 -6 -12 3 -18 1 -14 -5 9 -14 -37 1 -58 19 -12 11 -18 11 -23 3 -6
-9 -10 -9 -16 1 -7 12 -9 11 -9 -1 0 -11 -3 -11 -12 -2 -7 7 -22 12 -34 12
-13 0 -26 5 -29 10 -4 6 -12 10 -18 9 -7 -1 -25 4 -42 11 -16 7 -33 14 -37 14
-3 1 -18 13 -32 29 -14 15 -29 27 -34 27 -5 0 -7 12 -5 28 3 19 2 23 -5 13 -7
-9 -10 5 -11 48 0 38 3 60 9 56 5 -3 7 0 4 8 -3 8 0 18 5 22 6 3 8 11 5 17 -4
6 -3 13 2 17 21 15 68 73 54 67 -8 -4 -6 0 4 8 11 9 16 19 13 23 -4 3 -1 13 7
22 8 9 16 21 18 26 2 6 6 9 10 8 5 -2 8 2 8 7 0 6 -6 10 -12 10 -9 0 -8 4 2
10 8 5 11 10 6 10 -5 0 -1 10 10 22 10 12 13 18 7 14 -16 -9 -18 20 -3 29 8 5
7 11 -1 21 -9 11 -9 17 1 29 9 10 9 15 1 15 -15 0 -15 126 0 136 7 4 8 9 1 13
-5 3 -7 29 -5 58 3 29 9 50 14 47 5 -3 9 2 9 10 0 9 -4 16 -10 16 -6 0 -7 20
-4 48 3 31 1 42 -5 33 -10 -15 -10 -15 -11 89 0 40 -3 51 -10 40 -11 -17 -12
-16 -18 88 -1 13 -6 21 -10 18 -5 -3 -8 8 -7 24 1 17 -1 30 -5 30 -4 0 -7 12
-7 27 -1 15 -6 29 -12 31 -6 2 -11 8 -11 13 0 6 5 7 11 3 6 -3 4 5 -6 19 -9
14 -17 36 -19 49 -1 12 -10 38 -20 57 -10 18 -16 44 -13 57 2 14 -1 24 -7 24
-6 0 -6 4 2 9 11 7 11 11 -2 24 -18 17 -21 32 -6 22 6 -3 10 1 10 10 0 9 -5
13 -10 10 -10 -6 -12 5 -13 83 -1 20 -6 40 -12 44 -6 5 -6 8 3 8 6 0 12 5 12
11 0 5 -4 8 -8 5 -4 -2 -9 5 -9 17 -2 17 0 19 7 7 8 -13 10 -12 10 3 0 9 -4
17 -10 17 -5 0 -10 5 -10 11 0 5 5 7 10 4 6 -3 10 -1 10 4 0 6 -6 11 -13 11
-10 0 -13 19 -13 69 1 38 5 69 10 68 12 -3 16 32 4 39 -6 4 -5 10 3 15 12 7
12 12 1 30 -8 11 -9 18 -3 14 6 -3 11 -1 11 4 0 6 -5 11 -11 11 -8 0 -8 4 -2
13 6 6 9 28 8 47 -2 19 4 48 11 64 8 16 14 36 13 45 0 12 -3 11 -9 -4 -7 -14
-8 -8 -3 20 3 22 9 45 13 50 4 6 6 18 5 28 -2 9 1 15 6 11 5 -3 9 5 9 18 0 18
-2 20 -10 8 -8 -13 -10 -12 -10 3 0 9 3 17 8 17 4 0 8 11 8 25 1 14 -1 25 -5
25 -4 0 -8 20 -10 45 -1 31 2 45 11 45 9 0 9 3 0 12 -13 13 -17 82 -4 74 5 -3
7 15 6 39 -1 25 1 45 5 45 4 0 7 8 8 18 1 16 6 57 17 131 3 18 1 41 -4 51 -5
10 -11 32 -12 49 -1 17 -6 31 -11 31 -5 0 -6 7 -3 16 4 9 1 24 -6 32 -11 13
-11 14 1 8 10 -7 11 -3 5 15 -4 13 -8 34 -8 47 0 12 -4 22 -8 22 -4 0 -8 7 -8
16 0 9 5 12 13 8 8 -6 8 -3 -1 9 -8 9 -11 20 -9 25 3 4 2 14 -3 22 -4 7 -4 24
1 37 6 16 5 23 -4 24 -9 0 -9 2 1 6 6 2 12 9 12 14 0 6 -6 7 -13 3 -7 -5 -6 0
3 11 9 11 10 16 3 11 -14 -8 -15 16 -16 354 -1 257 4 400 14 400 5 0 9 10 9
23 0 18 -2 19 -10 7 -8 -12 -10 -10 -10 8 0 13 4 20 10 17 6 -3 10 -1 10 4 0
6 -4 11 -10 11 -5 0 -10 9 -10 20 0 11 5 20 10 20 6 0 10 10 9 23 0 21 -1 21
-9 2 -8 -19 -9 -19 -9 3 -1 12 3 22 7 22 5 0 7 25 6 55 -2 32 2 55 7 55 6 0 8
9 4 19 -3 11 -1 22 5 26 5 3 10 12 10 18 0 7 -4 6 -10 -3 -8 -12 -10 -10 -7
10 1 14 7 32 12 40 6 8 10 22 11 30 1 8 2 25 3 38 0 12 8 22 16 22 18 0 20 16
3 26 -7 4 -8 3 -4 -4 4 -7 2 -12 -3 -12 -6 0 -11 7 -11 15 0 8 5 15 11 15 6 0
9 9 6 19 -3 11 2 30 11 42 8 12 10 19 4 15 -7 -4 -12 -1 -12 9 0 10 5 13 11 9
9 -5 10 1 5 20 -4 16 -2 26 5 26 6 0 9 7 5 15 -3 8 -1 15 4 15 5 0 7 9 5 20
-2 11 0 18 4 15 8 -5 10 7 10 78 1 19 6 27 18 27 15 0 16 2 3 10 -11 7 -11 10
-2 10 7 0 11 4 8 9 -9 13 5 72 15 65 5 -3 6 2 3 11 -4 8 0 22 7 31 9 11 12 58
12 165 0 82 4 144 8 138 4 -7 7 5 7 27 -1 74 10 166 21 177 6 6 11 16 11 21 0
6 -4 5 -9 -2 -6 -9 -8 -5 -8 15 -1 84 -14 177 -25 185 -8 4 -9 8 -2 8 13 0 7
47 -7 55 -4 3 -6 12 -2 20 3 8 1 15 -5 15 -5 0 -13 7 -16 16 -3 8 -2 12 4 9 6
-3 10 -1 10 4 0 6 -4 11 -9 11 -5 0 -12 16 -15 35 -4 20 -11 33 -17 30 -5 -4
-9 8 -9 24 0 17 -5 31 -11 31 -5 0 -8 4 -5 9 4 5 -2 7 -12 4 -10 -2 -19 -10
-20 -16 0 -7 -3 -23 -5 -37 -3 -14 -8 -44 -12 -68 -6 -31 -10 -40 -17 -30 -6
8 -7 1 -3 -21 5 -22 4 -31 -3 -27 -6 4 -11 -1 -10 -11 0 -18 -11 -208 -12
-208 -3 0 -13 -96 -13 -122 0 -18 -5 -33 -11 -33 -7 0 -11 -15 -9 -40 1 -22
-2 -40 -6 -40 -5 0 -7 -11 -6 -25 2 -14 0 -25 -5 -25 -11 0 -31 -60 -24 -71 3
-5 0 -9 -6 -9 -6 0 -9 -4 -5 -9 3 -5 -1 -15 -8 -23 -7 -7 -12 -20 -12 -28 1
-8 -4 -22 -10 -30 -7 -8 -18 -29 -26 -47 -7 -17 -16 -30 -20 -27 -4 2 -7 -2
-6 -9 0 -6 -1 -21 -2 -32 -1 -17 -3 -18 -11 -5 -8 12 -10 11 -10 -7 0 -30 -11
-54 -21 -47 -8 4 -14 -17 -10 -38 0 -5 -7 -8 -16 -8 -13 0 -14 -3 -6 -11 14
-14 5 -42 -10 -32 -6 4 -8 -3 -4 -19 5 -17 2 -30 -9 -38 -8 -7 -13 -19 -10
-26 3 -8 -3 -18 -12 -23 -9 -6 -14 -11 -9 -11 4 0 0 -11 -9 -25 -9 -14 -13
-25 -9 -25 5 0 0 -9 -10 -20 -14 -15 -15 -20 -4 -20 10 -1 9 -4 -3 -11 -10 -5
-18 -21 -18 -34 0 -13 -4 -27 -10 -30 -5 -3 -10 -17 -10 -30 0 -13 -6 -30 -12
-37 -7 -7 -14 -40 -15 -73 -1 -36 2 -52 6 -40 7 17 8 16 13 -8 4 -21 2 -27 -8
-23 -8 3 -14 1 -14 -3 0 -5 7 -11 15 -15 9 -3 14 -16 13 -31 -1 -15 -7 -24
-14 -21 -7 3 -11 -6 -11 -20 0 -14 4 -21 10 -17 6 4 7 1 2 -8 -5 -7 -9 -28
-10 -47 0 -18 -6 -37 -14 -41 -8 -5 -9 -11 -3 -15 10 -6 4 -56 -7 -56 -8 0
-10 -9 -13 -55 -1 -14 -5 -25 -8 -25 -4 0 -8 -12 -8 -27 -2 -33 -6 -51 -17
-75 -4 -10 -4 -25 -1 -34 3 -8 2 -12 -4 -9 -6 3 -9 -4 -8 -17 2 -32 -21 -98
-35 -99 -22 -2 -42 3 -52 13 -7 8 -5 9 5 3 8 -4 3 4 -12 17 -15 14 -25 28 -21
32 3 3 1 6 -5 6 -7 0 -12 -7 -12 -15 0 -8 6 -15 13 -15 8 0 7 -3 -3 -10 -8 -5
-12 -12 -8 -15 11 -12 -13 -65 -30 -65 -15 0 -15 -2 -2 -10 13 -9 13 -10 0
-11 -8 -1 -22 -2 -30 -3 -8 -2 -23 -3 -33 -4 -11 -1 -15 -7 -11 -13 4 -8 0 -9
-15 -4 -14 4 -21 2 -21 -7 0 -10 -3 -9 -10 2 -5 8 -10 11 -10 7 0 -21 -33 14
-36 38 -3 31 -6 36 -27 39 -21 3 -49 34 -36 38 7 2 5 11 -7 22 -15 16 -18 35
-17 125 1 178 2 203 13 196 12 -8 13 5 0 25 -6 9 -5 17 3 23 9 7 9 10 0 14 -7
2 -13 9 -13 14 0 6 5 7 10 4 6 -3 10 1 10 10 0 9 -4 13 -10 10 -14 -9 -13 8 2
23 8 8 8 12 1 12 -6 0 -18 -12 -28 -26 -9 -14 -19 -23 -22 -20 -3 3 -12 -2
-20 -10 -9 -8 -22 -13 -30 -10 -8 3 -11 1 -8 -4 12 -20 -21 -9 -42 14 -22 23
-22 26 -8 60 8 20 20 36 25 36 6 0 10 5 10 11 0 5 -6 7 -13 3 -6 -4 -1 5 12
19 14 15 22 29 19 33 -8 7 42 60 53 56 5 -1 12 5 15 13 4 8 11 15 18 15 6 0
21 16 34 35 20 32 25 34 44 24 21 -11 21 -12 2 -26 -10 -8 -18 -19 -16 -24 1
-5 -2 -9 -7 -9 -4 0 -25 -16 -45 -35 -20 -19 -42 -34 -49 -32 -7 1 -12 -6 -12
-15 0 -9 -11 -28 -24 -42 -14 -14 -21 -26 -16 -26 5 0 4 -5 -2 -11 -6 -6 -9
-18 -6 -27 4 -9 2 -13 -4 -9 -7 5 -9 0 -6 -12 3 -13 11 -17 24 -14 10 3 19 9
19 14 0 5 9 9 21 9 11 0 17 5 14 10 -3 6 4 10 15 10 15 0 20 5 17 15 -5 10 1
14 22 12 30 -2 31 -11 17 -107 -5 -30 -4 -32 4 -10 8 20 8 15 4 -20 -3 -25 -6
-61 -7 -82 -1 -20 -5 -34 -8 -32 -12 7 -2 -201 10 -225 11 -19 11 -22 -1 -16
-7 3 -5 0 4 -8 10 -8 14 -18 10 -23 -4 -4 0 -4 8 2 29 20 45 11 45 -27 0 -26
6 -41 24 -54 13 -10 21 -13 18 -7 -4 6 2 13 13 17 11 4 18 11 15 16 -3 5 2 6
11 2 13 -5 15 -3 10 8 -4 8 -1 5 8 -5 15 -18 16 -18 26 8 5 15 10 31 10 35 0
5 6 14 14 20 8 7 13 21 11 32 -2 10 -1 19 3 19 4 0 8 8 8 18 2 33 13 74 24 87
7 8 9 23 5 34 -8 27 1 40 23 35 15 -4 17 -18 16 -108 0 -97 1 -102 20 -101 11
1 22 7 24 15 3 7 0 10 -7 6 -15 -10 -13 5 3 27 7 9 12 29 10 44 -1 15 2 33 7
39 7 8 6 14 0 19 -7 4 -6 13 3 28 8 12 12 30 11 39 -2 10 2 16 8 15 8 -1 13
15 14 43 2 50 10 98 21 114 3 6 5 21 3 34 -1 13 3 22 11 22 10 0 9 3 -2 10 -8
5 -10 10 -5 10 6 0 11 28 12 62 1 40 -2 57 -8 47 -5 -8 -9 -9 -9 -3 0 5 6 16
12 23 11 11 10 12 0 6 -8 -4 -12 -2 -11 6 1 8 -1 31 -6 52 -5 27 -4 42 5 50
10 9 11 9 5 -2 -6 -10 -4 -12 4 -7 7 5 10 14 7 21 -2 7 2 22 10 33 8 11 11 27
8 36 -3 9 -1 16 4 16 10 0 25 32 26 56 1 6 9 19 20 29 12 12 14 21 7 23 -6 2
-11 8 -11 13 0 5 3 8 8 6 4 -1 7 1 7 4 0 4 8 16 18 26 9 11 14 22 11 26 -10
10 7 48 18 41 6 -4 8 -2 5 3 -4 6 -1 23 7 38 8 15 12 34 9 41 -3 8 2 17 11 20
9 3 13 10 10 16 -3 5 2 16 12 24 11 9 13 13 7 9 -8 -4 -11 -1 -7 9 3 8 12 17
20 20 8 3 14 12 14 21 0 8 5 15 11 15 5 0 7 5 4 10 -3 6 -1 10 6 10 7 0 9 3 6
7 -4 3 1 12 11 20 10 9 11 12 2 7 -11 -6 -10 -2 3 13 9 11 14 23 10 26 -3 4
-1 7 6 7 8 0 11 7 7 15 -3 8 -1 15 5 15 6 0 8 4 4 9 -3 5 -1 12 4 16 6 3 8 12
5 20 -4 8 0 17 8 20 8 3 15 11 16 18 3 42 7 57 14 57 5 0 6 11 2 24 -3 14 0
29 10 39 18 17 21 32 6 22 -14 -8 -13 18 1 32 14 14 21 72 21 186 1 48 5 87
11 87 5 0 6 7 3 16 -3 8 -2 12 4 9 6 -3 10 -1 10 4 0 6 -5 11 -10 11 -7 0 -7
6 0 19 5 11 10 31 10 46 0 15 4 24 10 20 6 -3 10 -1 10 4 0 6 -4 11 -10 11 -5
0 -10 5 -10 11 0 5 5 7 12 3 7 -5 9 0 6 14 -3 12 0 29 7 39 7 9 11 22 8 28 -8
24 16 65 39 66 13 0 17 3 11 6 -27 10 -13 30 18 25 20 -3 28 -9 25 -18z m1872
-1089 c-3 -13 -2 -23 1 -20 9 5 36 -12 37 -22 0 -4 8 -23 16 -42 10 -23 17
-29 22 -20 3 8 5 6 3 -6 -2 -11 4 -25 13 -32 12 -10 13 -12 1 -13 -11 0 -10
-4 5 -16 10 -8 12 -13 4 -9 -9 4 -7 0 4 -9 10 -8 15 -19 11 -25 -3 -6 -1 -11
5 -11 6 0 9 -4 5 -9 -3 -5 0 -13 6 -16 5 -4 8 -14 5 -22 -3 -8 -1 -11 4 -8 6
3 10 4 10 1 0 -2 3 -12 7 -22 4 -12 3 -15 -5 -10 -7 4 -12 3 -12 -2 0 -6 7
-13 16 -16 9 -3 14 -13 10 -21 -3 -8 -1 -17 4 -20 15 -9 12 -27 -2 -19 -10 6
-10 4 0 -7 13 -14 17 -101 5 -113 -9 -9 -10 -185 0 -179 4 2 7 -3 7 -12 0 -9
-4 -13 -10 -10 -5 3 -10 -1 -10 -10 0 -9 5 -13 10 -10 9 6 14 -18 12 -55 0 -8
6 -19 14 -23 10 -6 14 -21 12 -42 -1 -19 0 -37 3 -40 10 -10 -3 -55 -15 -55
-7 0 -13 6 -14 13 -5 69 -24 162 -33 168 -5 3 -7 14 -3 24 4 11 3 16 -2 12
-11 -6 -11 -5 -14 120 -2 51 1 98 7 105 5 7 9 20 8 28 0 8 4 18 9 22 6 4 5 12
-2 21 -7 8 -10 22 -6 30 3 9 -2 24 -11 33 -9 9 -14 25 -12 36 3 10 1 16 -4 12
-5 -3 -9 0 -9 5 0 6 6 11 13 12 10 0 10 2 0 6 -7 2 -13 13 -13 23 0 10 -6 20
-14 23 -8 3 -16 22 -18 44 -2 21 -8 37 -13 36 -6 -1 -12 8 -12 19 -1 12 -6 24
-10 27 -4 3 -9 13 -11 21 -2 8 -8 17 -13 18 -5 2 -9 11 -9 20 0 9 -10 26 -21
38 -22 23 -20 54 2 54 7 0 9 -10 7 -25z"/>
<path d="M691 6074 c0 -11 3 -14 6 -6 3 7 2 16 -1 19 -3 4 -6 -2 -5 -13z"/>
<path d="M3550 4780 c0 -5 5 -10 11 -10 5 0 7 5 4 10 -3 6 -8 10 -11 10 -2 0
-4 -4 -4 -10z"/>
<path d="M3435 3989 c-4 -6 -5 -13 -2 -16 7 -7 27 6 27 18 0 12 -17 12 -25 -2z"/>
<path d="M2902 5660 c0 -14 2 -19 5 -12 2 6 2 18 0 25 -3 6 -5 1 -5 -13z"/>
<path d="M2832 4430 c0 -14 2 -19 5 -12 2 6 2 18 0 25 -3 6 -5 1 -5 -13z"/>
<path d="M2851 3314 c0 -11 3 -14 6 -6 3 7 2 16 -1 19 -3 4 -6 -2 -5 -13z"/>
<path d="M546 3997 c3 -10 9 -15 12 -12 3 3 0 11 -7 18 -10 9 -11 8 -5 -6z"/>
<path d="M2050 3970 c0 -5 5 -10 11 -10 5 0 7 5 4 10 -3 6 -8 10 -11 10 -2 0
-4 -4 -4 -10z"/>
<path d="M1791 3224 c0 -11 3 -14 6 -6 3 7 2 16 -1 19 -3 4 -6 -2 -5 -13z"/>
<path d="M1196 3087 c3 -10 9 -15 12 -12 3 3 0 11 -7 18 -10 9 -11 8 -5 -6z"/>
<path d="M1151 2634 c0 -11 3 -14 6 -6 3 7 2 16 -1 19 -3 4 -6 -2 -5 -13z"/>
<path d="M1141 2434 c0 -11 3 -14 6 -6 3 7 2 16 -1 19 -3 4 -6 -2 -5 -13z"/>
<path d="M2350 2404 c0 -8 5 -12 10 -9 6 3 10 10 10 16 0 5 -4 9 -10 9 -5 0
-10 -7 -10 -16z"/>
<path d="M1281 1234 c0 -11 3 -14 6 -6 3 7 2 16 -1 19 -3 4 -6 -2 -5 -13z"/>
<path d="M2355 670 c3 -5 8 -10 11 -10 2 0 4 5 4 10 0 6 -5 10 -11 10 -5 0 -7
-4 -4 -10z"/>
<path d="M2361 414 c0 -11 3 -14 6 -6 3 7 2 16 -1 19 -3 4 -6 -2 -5 -13z"/>
</g>
</svg>
