<?xml version="1.0" ?><!-- Uploaded to: SVG Repo, www.svgrepo.com, Generator: SVG Repo Mixer Tools -->
<svg class="icone-barra" width="40px" height="40px" viewBox="0 0 100 100" data-name="Layer 1" id="Layer_1" xmlns="http://www.w3.org/2000/svg"><defs></defs><path class="cls-1" d="M60.1,28.6a17,17,0,0,1-1.3,6A20,20,0,0,1,57.1,38c-1.84,3-4.38,5.24-7.17,5.24s-5.19-2.18-7-5.06a20.25,20.25,0,0,1-1.81-3.64A17.58,17.58,0,0,1,39.9,28.6,8.11,8.11,0,0,1,40,27.39l1.33-3.66c.94-.8,3.61-1.61,5.73-2.15a11.7,11.7,0,0,1,5.76,0c2.18.54,5,1.35,5.89,2.16L60,27.05h0a2.21,2.21,0,0,1,0,.37A7.58,7.58,0,0,1,60.1,28.6Z"/><path class="cls-1" d="M41.13,34.55a1.72,1.72,0,0,1-1,.34c-1.63,0-3.86-2.62-3.86-4.25a3.69,3.69,0,0,1,1.58-3.06h0a2.25,2.25,0,0,1,1.2-.35,3,3,0,0,1,.91.16,8.11,8.11,0,0,0-.08,1.21A17.58,17.58,0,0,0,41.13,34.55Z"/><path class="cls-1" d="M63.65,30.72c0,1.63-2.25,4.23-3.88,4.23a1.73,1.73,0,0,1-1-.34h0A17.62,17.62,0,0,0,60,28.66,7,7,0,0,0,60,27.45l.05,0a3,3,0,0,1,.86-.14,2.18,2.18,0,0,1,.92.21A3.57,3.57,0,0,1,63.65,30.72Z"/><polygon class="cls-1" points="60.3 54.82 62.65 58.99 50.01 77.29 53.76 62.95 58.21 45.97 65.21 51.79 60.3 54.82"/><line class="cls-1" x1="58.21" x2="50.11" y1="45.97" y2="48.59"/><path class="cls-1" d="M62.14,27.58l-.34-.08a2.18,2.18,0,0,0-.92-.21,3,3,0,0,0-.86.14,2.21,2.21,0,0,0,0-.37h0l-1.29-3.32c-.94-.81-3.71-1.62-5.89-2.16a11.7,11.7,0,0,0-5.76,0c-2.12.54-4.79,1.35-5.73,2.15L40,27.39a3,3,0,0,0-.91-.16,2.25,2.25,0,0,0-1.2.35h0s0-5.81,1.49-8.27,3.7-5.38,8.8-5.54l1.25,0h.06l.6,0h.67l1.12,0c5.1.16,7.26,3,8.8,5.54S62.14,27.58,62.14,27.58Z"/><polyline class="cls-1" points="60.91 27.29 60.9 27.29 60.88 27.29 59.99 27.08 59.98 27.06 59.98 27.05 58.69 23.73"/><line class="cls-1" x1="41.31" x2="39.98" y1="23.73" y2="27.39"/><polygon class="cls-1" points="37.35 58.99 39.71 54.82 34.79 51.79 41.8 45.97 46.28 63.05 50.01 77.29 37.35 58.99"/><polygon class="cls-1" points="53.76 62.95 50.01 77.29 46.28 63.05 50.11 48.59 53.76 62.95"/><line class="cls-1" x1="50.11" x2="41.8" y1="48.59" y2="45.97"/><path class="cls-1" d="M49.92,84.22H25.72V66.4a15.1,15.1,0,0,1,5.46-11.62L41.79,46l8.32,2.61,8-2.61h.11l10.61,8.81A15.1,15.1,0,0,1,74.28,66.4V84.22H50.08"/><path class="cls-1" d="M38.61,80H41V73.16a5.81,5.81,0,0,0-5.81-5.81h0a5.81,5.81,0,0,0-5.81,5.81V80h2.46"/><line class="cls-1" x1="65.21" x2="65.21" y1="70.75" y2="51.79"/><line class="cls-1" x1="35.18" x2="35.18" y1="67.35" y2="51.47"/><circle class="cls-1" cx="65.21" cy="73.69" r="2.94"/></svg>
