<?xml version="1.0" encoding="iso-8859-1"?>
<!-- Uploaded to: SVG Repo, www.svgrepo.com, Generator: SVG Repo Mixer Tools -->
<svg fill="var(--fonte)" height="var(--iconeBarraSize)" width="var(--iconeBarraSize)" version="1.1" id="Layer_1" xmlns="http://www.w3.org/2000/svg" xmlns:xlink="http://www.w3.org/1999/xlink" 
	 viewBox="0 0 512 512" xml:space="preserve">
<g>
	<g>
		<path d="M477.867,187.638h-36.25l7.066-19.413c10.197-28.032-4.309-59.153-32.341-69.35L151.518,2.482
			c-20.497-7.458-43.221,3.149-50.68,23.637l-27.793,76.373h-4.779c-18.825,0-34.133,15.309-34.133,34.133v51.012
			C15.309,187.638,0,202.939,0,221.772v256c0,18.825,15.309,34.133,34.133,34.133h443.733c18.825,0,34.133-15.309,34.133-34.133
			v-256C512,202.939,496.691,187.638,477.867,187.638z M162.133,290.226h-102.4c-4.71,0-8.533-3.814-8.533-8.533
			s3.823-8.533,8.533-8.533h102.4c4.71,0,8.533,3.814,8.533,8.533S166.844,290.226,162.133,290.226z M162.133,256.093h-102.4
			c-4.71,0-8.533-3.814-8.533-8.533s3.823-8.533,8.533-8.533h102.4c4.71,0,8.533,3.814,8.533,8.533S166.844,256.093,162.133,256.093
			z M51.2,187.638v-51.012c0-9.412,7.654-17.067,17.067-17.067H202.88h29.636l17.69,24.431l7.194,9.933l24.414,33.715H51.2z
			 M341.069,170.64c-1.263,3.473-4.54,5.623-8.021,5.623c-0.964,0-1.954-0.171-2.918-0.521l-48.683-17.715l-17.852-24.653
			l72.371,26.334C340.395,161.321,342.682,166.22,341.069,170.64z M409.583,150.902c-1.254,3.465-4.531,5.615-8.013,5.615
			c-0.973,0-1.954-0.162-2.918-0.512L142.046,62.599c-4.429-1.604-6.707-6.502-5.094-10.931c1.604-4.437,6.519-6.707,10.931-5.103
			l256.597,93.406C408.917,141.575,411.196,146.473,409.583,150.902z"/>
	</g>
</g>
</svg>
