<?xml version="1.0" ?><!-- Uploaded to: SVG Repo, www.svgrepo.com, Generator: SVG Repo Mixer Tools -->
<svg width="800px" height="800px" viewBox="0 0 100 100" data-name="Layer 1" id="Layer_1" xmlns="http://www.w3.org/2000/svg"><defs><style>.cls-1,.cls-2{fill:none;stroke:#000000;stroke-linejoin:round;stroke-width:2px;}.cls-2{stroke-linecap:round;}</style></defs><path class="cls-1" d="M75.29,23.2V85.48a2.08,2.08,0,0,1-2.08,2.08H26.79a2.08,2.08,0,0,1-2.08-2.08V23.2a2.08,2.08,0,0,1,2.08-2.08h9v2.25a1,1,0,0,0,1,1H63.17a1,1,0,0,0,1-1V21.12h9A2.08,2.08,0,0,1,75.29,23.2Z"/><path class="cls-1" d="M71.13,22.16v60.2a1,1,0,0,1-1,1H29.91a1,1,0,0,1-1-1V22.16a1,1,0,0,1,1-1h5.88v2.25a1,1,0,0,0,1,1H63.17a1,1,0,0,0,1-1V21.12h5.88A1,1,0,0,1,71.13,22.16Z"/><rect class="cls-1" height="6.58" rx="1.04" width="28.43" x="35.79" y="17.83"/><circle class="cls-1" cx="50" cy="15.14" r="2.69"/><path class="cls-1" d="M61,24.41v5A1.56,1.56,0,0,1,59.39,31H40.61a1.56,1.56,0,0,1-1.56-1.56v-5"/><path class="cls-2" d="M33,52.85H38.7l1.63-7.37a.26.26,0,0,1,.51,0l3.21,13.74a.26.26,0,0,0,.51,0l3.27-19.56a.26.26,0,0,1,.51,0l3.32,26.51a.26.26,0,0,0,.51,0L55.45,43.9a.26.26,0,0,1,.51,0L59.2,59.51a.26.26,0,0,0,.51,0L63,46.85a.26.26,0,0,1,.51,0l1.62,6H67"/></svg>