<svg version="1.1" xmlns="http://www.w3.org/2000/svg" viewBox="0 0 462.79616540818483 423.32735091678796" width="462.79616540818483" height="423.32735091678796">
  <!-- svg-source:excalidraw -->
  
  <defs>
    <style class="style-fonts">
      @font-face {
        font-family: "Virgil";
        src: url("https://excalidraw.com/Virgil.woff2");
      }
      @font-face {
        font-family: "Cascadia";
        src: url("https://excalidraw.com/Cascadia.woff2");
      }
      @font-face {
        font-family: "Assistant";
        src: url("https://excalidraw.com/Assistant-Regular.woff2");
      }
    </style>
    
  </defs>
  <g stroke-linecap="round"><g transform="translate(210.25411401690917 10.682728766556835) rotate(0 -98 201)"><path d="M0.91 0.8 C-31.76 67.86, -163.67 334.57, -196.49 401.41 M-0.07 0.17 C-32.9 67.47, -164.91 335.49, -197.69 402.64" stroke="var(--fonte)" stroke-width="2" fill="none"></path></g></g><mask></mask><g stroke-linecap="round"><g transform="translate(214.14311712271547 11.775097618587324) rotate(0 119.5 199)"><path d="M0.56 -0.48 C40.38 65.64, 199.07 331.19, 238.65 397.49 M-0.6 -1.78 C39.05 64.43, 197.35 332.08, 237.52 398.77" stroke="var(--fonte)" stroke-width="2" fill="none"></path></g></g><mask></mask><g stroke-linecap="round"><g transform="translate(162.55680703810413 108.15140039910116) rotate(0 54.5 0.9999999999999858)"><path d="M0.67 -0.59 C18.84 -0.28, 90.62 2.51, 108.54 3.04 M-0.44 1.72 C17.58 2.22, 88.84 1.65, 107.34 1.46" stroke="var(--fonte)" stroke-width="2" fill="none"></path></g></g><mask></mask><g stroke-linecap="round"><g transform="translate(10.70483247023077 410.11174303918096) rotate(0 218.49999999999997 0)"><path d="M0.49 0.94 C73.16 1.28, 364.4 1, 437.05 1.01 M-0.7 0.39 C71.72 0.51, 363.45 -0.38, 436.12 -0.58" stroke="var(--fonte)" stroke-width="2" fill="none"></path></g></g><mask></mask><g stroke-linecap="round"><g transform="translate(78.70483247023077 282.11174303918096) rotate(0 148.49999999999997 1)"><path d="M0.25 0.58 C49.84 0.86, 248.57 2.52, 297.98 2.58 M-1.08 -0.16 C48.4 -0.32, 248.07 0.46, 297.54 0.76" stroke="var(--fonte)" stroke-width="2" fill="none"></path></g></g><mask></mask><g stroke-linecap="round"><g transform="translate(115.70483247023077 207.111743039181) rotate(0 108.49999999999997 0.5)"><path d="M0.55 1.12 C36.5 1.37, 180.25 1.18, 216.42 1.35 M-0.62 0.66 C35.66 0.55, 182.54 -0.55, 218.83 -0.59" stroke="var(--fonte)" stroke-width="2" fill="none"></path></g></g><mask></mask><g stroke-linecap="round"><g transform="translate(44.70483247023077 350.11174303918096) rotate(0 186.49999999999997 0.5)"><path d="M0.09 0.33 C62.17 0.44, 311.41 1.62, 373.55 1.8 M-1.32 -0.54 C60.56 -0.26, 310.64 0.13, 372.89 0.09" stroke="var(--fonte)" stroke-width="2" fill="none"></path></g></g><mask></mask><g transform="translate(171.42744699420405 47.182728766556835) rotate(0 33.43333435058594 25)"><text x="0" y="17.52" font-family="Virgil, Segoe UI Emoji" font-size="20px" fill="var(--fonte)" text-anchor="start" style="white-space: pre;" direction="ltr" dominant-baseline="alphabetic">  Auto</text><text x="0" y="42.519999999999996" font-family="Virgil, Segoe UI Emoji" font-size="20px" fill="var(--fonte)" text-anchor="start" style="white-space: pre;" direction="ltr" dominant-baseline="alphabetic"></text></g><g transform="translate(175.38744913043456 86.68272876655683) rotate(0 40.69166564941406 10)"><text x="0" y="14.016" font-family="Virgil, Segoe UI Emoji" font-size="16px" fill="var(--fonte)" text-anchor="start" style="white-space: pre;" direction="ltr" dominant-baseline="alphabetic">realização</text></g><g transform="translate(167.25411401690917 132.68272876655683) rotate(0 51.5 10)"><text x="0" y="14.016" font-family="Virgil, Segoe UI Emoji" font-size="16px" fill="var(--fonte)" text-anchor="start" style="white-space: pre;" direction="ltr" dominant-baseline="alphabetic">Necessidades</text></g><g transform="translate(176.25411401690917 178.68272876655683) rotate(0 40.18333435058594 10)"><text x="0" y="14.016" font-family="Virgil, Segoe UI Emoji" font-size="16px" fill="var(--fonte)" text-anchor="start" style="white-space: pre;" direction="ltr" dominant-baseline="alphabetic">Estimação</text></g><g transform="translate(117.25411401690917 233.18272876655683) rotate(0 77.49166870117188 12.5)"><text x="0" y="17.52" font-family="Virgil, Segoe UI Emoji" font-size="20px" fill="var(--fonte)" text-anchor="start" style="white-space: pre;" direction="ltr" dominant-baseline="alphabetic">Pertencimento e</text></g><g transform="translate(278.25411401690917 232.18272876655683) rotate(0 22.733333587646484 12.5)"><text x="0" y="17.52" font-family="Virgil, Segoe UI Emoji" font-size="20px" fill="var(--fonte)" text-anchor="start" style="white-space: pre;" direction="ltr" dominant-baseline="alphabetic">Amor</text></g><g transform="translate(174.25411401690917 294.6827287665568) rotate(0 49.55833435058594 12.5)"><text x="0" y="17.52" font-family="Virgil, Segoe UI Emoji" font-size="20px" fill="var(--fonte)" text-anchor="start" style="white-space: pre;" direction="ltr" dominant-baseline="alphabetic">Segurança</text></g><g transform="translate(105.25411401690917 370.6827287665568) rotate(0 132.5749969482422 12.5)"><text x="0" y="17.52" font-family="Virgil, Segoe UI Emoji" font-size="20px" fill="var(--fonte)" text-anchor="start" style="white-space: pre;" direction="ltr" dominant-baseline="alphabetic">Necessidades e fisiológicas</text></g><g transform="translate(203.25411401690917 155.68272876655683) rotate(0 11.158333778381348 12.5)"><text x="0" y="17.52" font-family="Virgil, Segoe UI Emoji" font-size="20px" fill="var(--fonte)" text-anchor="start" style="white-space: pre;" direction="ltr" dominant-baseline="alphabetic">de</text></g></svg>