<svg version="1.1" xmlns="http://www.w3.org/2000/svg" viewBox="0 0 365.9499969482422 267" width="365.9499969482422" height="267">
  <!-- svg-source:excalidraw -->
  
  <defs>
    <style class="style-fonts">
      @font-face {
        font-family: "Virgil";
        src: url("https://excalidraw.com/Virgil.woff2");
      }
      @font-face {
        font-family: "Cascadia";
        src: url("https://excalidraw.com/Cascadia.woff2");
      }
      @font-face {
        font-family: "Assistant";
        src: url("https://excalidraw.com/Assistant-Regular.woff2");
      }
    </style>
    
  </defs>
  <g stroke-linecap="round"><g transform="translate(187 36) rotate(0 -59 91.5)"><path d="M-0.99 0.18 C-20.65 30.74, -98.94 152.89, -118.32 183.3 M0.7 -0.77 C-19.12 29.42, -99.71 150.57, -119.44 181.33" stroke="var(--fonte)" stroke-width="2" fill="none"></path></g></g><mask></mask><g stroke-linecap="round"><g transform="translate(313.37030155312266 217.73366069024434) rotate(0 -122 0.5)"><path d="M-0.12 0.3 C-40.77 0.32, -204.07 0.5, -244.62 0.48 M-1.64 -0.59 C-41.83 -0.44, -201.86 1.47, -242.24 1.74" stroke="var(--fonte)" stroke-width="2" fill="none"></path></g></g><mask></mask><g stroke-linecap="round"><g transform="translate(188.37030155312266 37.733660690244335) rotate(0 63.5 92)"><path d="M-0.86 0.93 C20.28 31.52, 104.93 153.43, 126.32 184.12 M0.89 0.37 C22.47 31.13, 107.67 155.23, 128.67 185.72" stroke="var(--fonte)" stroke-width="2" fill="none"></path></g></g><mask></mask><g transform="translate(130 10) rotate(0 61.974998474121094 12.5)"><text x="0" y="17.52" font-family="Virgil, Segoe UI Emoji" font-size="20px" fill="var(--fonte)" text-anchor="start" style="white-space: pre;" direction="ltr" dominant-baseline="alphabetic">Culpabilidade</text></g><g transform="translate(276 232) rotate(0 39.974998474121094 12.5)"><text x="0" y="17.52" font-family="Virgil, Segoe UI Emoji" font-size="20px" fill="var(--fonte)" text-anchor="start" style="white-space: pre;" direction="ltr" dominant-baseline="alphabetic">Ilicitude</text></g><g transform="translate(10 230) rotate(0 48.08333206176758 12.5)"><text x="0" y="17.52" font-family="Virgil, Segoe UI Emoji" font-size="20px" fill="var(--fonte)" text-anchor="start" style="white-space: pre;" direction="ltr" dominant-baseline="alphabetic">Tipicidade</text></g><g transform="translate(169 129) rotate(0 24.733333587646484 12.5)"><text x="0" y="17.52" font-family="Virgil, Segoe UI Emoji" font-size="20px" fill="var(--fonte)" text-anchor="start" style="white-space: pre;" direction="ltr" dominant-baseline="alphabetic">Crime</text></g></svg>