<svg version="1.1" xmlns="http://www.w3.org/2000/svg" viewBox="0 0 627.4802999785452 526.0757575757573" width="627.4802999785452" height="526.0757575757573">
  <!-- svg-source:excalidraw -->
  
  <defs>
    <style class="style-fonts">
      @font-face {
        font-family: "Virgil";
        src: url("https://excalidraw.com/Virgil.woff2");
      }
      @font-face {
        font-family: "Cascadia";
        src: url("https://excalidraw.com/Cascadia.woff2");
      }
      @font-face {
        font-family: "Assistant";
        src: url("https://excalidraw.com/Assistant-Regular.woff2");
      }
    </style>
    
  </defs>
  <g stroke-linecap="round" transform="translate(11.16211816036332 9.999999999999943) rotate(0 303.15909090909093 253.0378787878787)"><path d="M441.76 27.76 C463.73 32.32, 480.88 46.96, 498.52 59.55 C516.15 72.15, 533.72 87.7, 547.57 103.34 C561.42 118.97, 572.57 135.54, 581.59 153.36 C590.62 171.18, 597.7 191.05, 601.72 210.26 C605.74 229.47, 607.14 249.08, 605.72 268.64 C604.3 288.2, 599.87 308.99, 593.19 327.61 C586.5 346.23, 577.23 363.84, 565.61 380.38 C553.98 396.92, 539.69 412.72, 523.44 426.84 C507.19 440.96, 487.85 454.23, 468.11 465.1 C448.38 475.97, 426.8 485.42, 405.01 492.05 C383.22 498.68, 360.68 502.97, 337.39 504.89 C314.11 506.8, 288.63 506, 265.32 503.55 C242 501.11, 219.35 496.87, 197.52 490.24 C175.69 483.6, 153.66 474.63, 134.34 463.73 C115.01 452.83, 97.38 439.01, 81.55 424.82 C65.71 410.64, 50.89 395.45, 39.33 378.63 C27.78 361.8, 18.76 342.44, 12.2 323.86 C5.63 305.27, 1.02 286.41, -0.08 267.12 C-1.17 247.84, 1.48 227.33, 5.62 208.15 C9.76 188.97, 15.48 169.99, 24.75 152.06 C34.02 134.12, 47.26 116.19, 61.25 100.54 C75.24 84.89, 90.83 70.66, 108.7 58.17 C126.57 45.68, 147.43 34.31, 168.49 25.6 C189.55 16.89, 212.45 10.19, 235.07 5.89 C257.69 1.59, 281.01 -0.57, 304.21 -0.19 C327.42 0.18, 350.66 3.19, 374.32 8.15 C397.98 13.11, 433.88 24.64, 446.19 29.57 C458.5 34.5, 450.68 33.95, 448.2 37.73 M281.66 0.32 C303.21 -5.34, 328.9 -0.48, 351.73 2.76 C374.56 6.01, 397.17 12.41, 418.66 19.78 C440.14 27.15, 461.69 35.38, 480.64 46.99 C499.59 58.61, 517.17 74.31, 532.36 89.48 C547.55 104.64, 561.1 120.94, 571.76 137.96 C582.42 154.98, 590.49 173.06, 596.32 191.61 C602.14 210.16, 606.09 229.82, 606.74 249.28 C607.38 268.74, 605.15 289.06, 600.17 308.34 C595.18 327.63, 587.01 347.54, 576.82 364.98 C566.64 382.42, 554.21 398.31, 539.06 413 C523.91 427.69, 504.58 441.49, 485.95 453.13 C467.31 464.77, 448.25 474.59, 427.23 482.82 C406.21 491.05, 382.57 498.75, 359.82 502.49 C337.06 506.23, 314.11 506.48, 290.71 505.25 C267.31 504.02, 242.06 500.38, 219.41 495.11 C196.76 489.84, 175.12 482.8, 154.83 473.61 C134.55 464.42, 114.93 452.96, 97.7 439.96 C80.48 426.96, 64.46 412.05, 51.49 395.59 C38.51 379.13, 27.99 359.76, 19.83 341.21 C11.67 322.66, 5.5 303.31, 2.54 284.3 C-0.41 265.28, -0.27 246.47, 2.09 227.12 C4.45 207.77, 9.23 186.5, 16.7 168.18 C24.16 149.86, 34.39 133.13, 46.9 117.2 C59.4 101.27, 74.64 86.05, 91.74 72.59 C108.83 59.13, 129.12 46.36, 149.45 36.43 C169.77 26.5, 191.88 19.11, 213.69 13.01 C235.51 6.9, 268.81 0.9, 280.34 -0.19 C291.87 -1.28, 282.46 2.18, 282.87 6.47" stroke="var(--fonte)" stroke-width="2" fill="none"></path></g><g transform="translate(249.055362835187 32.39967674642213) rotate(359.9034401675026 101.38333129882812 30.16964737646225)"><text x="0" y="21.14288888142474" font-family="Virgil, Segoe UI Emoji" font-size="24.135717901169794px" fill="var(--fonte)" text-anchor="start" style="white-space: pre;" direction="ltr" dominant-baseline="alphabetic">Modificadores da</text><text x="0" y="51.31253625788698" font-family="Virgil, Segoe UI Emoji" font-size="24.135717901169794px" fill="var(--fonte)" text-anchor="start" style="white-space: pre;" direction="ltr" dominant-baseline="alphabetic"> Imputabilidade</text></g><g stroke-linecap="round" transform="translate(324.6217141199593 159.73005998171556) rotate(0 119.86561561561558 95.31426293843509)"><path d="M81.89 5.59 C94.33 0.84, 111.35 0.26, 125.97 0.86 C140.58 1.46, 156.44 4.75, 169.59 9.18 C182.73 13.61, 194.92 19.37, 204.83 27.45 C214.75 35.52, 223.42 46.95, 229.08 57.65 C234.73 68.34, 237.95 80.06, 238.75 91.63 C239.55 103.19, 238.44 116.25, 233.87 127.04 C229.3 137.82, 220.83 147.7, 211.33 156.33 C201.83 164.96, 189.47 173.27, 176.87 178.83 C164.28 184.39, 149.86 188.22, 135.78 189.69 C121.69 191.17, 106.27 190.33, 92.36 187.69 C78.44 185.05, 64.35 180.34, 52.26 173.86 C40.17 167.38, 28.13 158.3, 19.8 148.82 C11.46 139.34, 5.31 128.21, 2.26 116.98 C-0.79 105.75, -0.57 92.97, 1.49 81.45 C3.55 69.94, 7.51 57.92, 14.62 47.88 C21.73 37.84, 30.81 28.7, 44.16 21.22 C57.5 13.74, 84.34 5.99, 94.69 3 C105.05 0.01, 105.85 2.01, 106.29 3.27 M86.29 3.2 C99.06 -1.07, 117.94 0.66, 132.39 1.82 C146.84 2.98, 160.46 5.13, 173 10.15 C185.54 15.18, 197.71 23.21, 207.65 31.97 C217.59 40.73, 227.11 52.29, 232.65 62.7 C238.18 73.1, 241.01 83.44, 240.85 94.43 C240.68 105.41, 237.25 117.63, 231.67 128.62 C226.09 139.61, 217.06 151.44, 207.36 160.36 C197.66 169.27, 186.11 177.35, 173.45 182.11 C160.79 186.88, 145.72 187.97, 131.43 188.95 C117.14 189.93, 101.96 191.11, 87.73 188.02 C73.49 184.93, 57.47 177.71, 46.03 170.4 C34.6 163.08, 26.25 153.93, 19.12 144.15 C11.99 134.36, 6.06 122.63, 3.24 111.68 C0.41 100.73, -0.14 89.57, 2.16 78.44 C4.45 67.3, 9.56 54.95, 17.02 44.89 C24.49 34.83, 35.05 24.96, 46.95 18.1 C58.86 11.23, 81.72 5.96, 88.44 3.71 C95.16 1.45, 87.09 3.19, 87.28 4.58" stroke="var(--fonte)" stroke-width="2" fill="none"></path></g><g transform="translate(391.4707916743347 174.92763462783495) rotate(0 59.21974658130972 24.415861431655287)"><text x="0" y="17.110635691304026" font-family="Virgil, Segoe UI Emoji" font-size="19.53268914532423px" fill="var(--fonte)" text-anchor="start" style="white-space: pre;" direction="ltr" dominant-baseline="alphabetic">Perturbados</text><text x="0" y="41.52649712295931" font-family="Virgil, Segoe UI Emoji" font-size="19.53268914532423px" fill="var(--fonte)" text-anchor="start" style="white-space: pre;" direction="ltr" dominant-baseline="alphabetic">  Mentais</text></g><g transform="translate(155.9954514936967 186.96969696969683) rotate(0 84.92500305175781 10.50835377508622)"><text x="0" y="14.728508651160857" font-family="Virgil, Segoe UI Emoji" font-size="16.813366040137964px" fill="var(--fonte)" text-anchor="start" style="white-space: pre;" direction="ltr" dominant-baseline="alphabetic">2. Psicose epiléptica</text></g><g stroke-linecap="round" transform="translate(34.177269675514935 76.51515151515139) rotate(0 150 112.22727272727272)"><path d="M92.6 8.47 C105.94 2.45, 124.52 2.1, 140.7 1.22 C156.87 0.33, 174.01 0.02, 189.68 3.16 C205.35 6.31, 221.43 13.17, 234.7 20.11 C247.96 27.05, 259.68 35.28, 269.27 44.81 C278.86 54.34, 287.19 65.72, 292.25 77.29 C297.3 88.85, 299.79 102.2, 299.61 114.2 C299.42 126.21, 296.42 137.84, 291.15 149.32 C285.88 160.8, 278.04 173.45, 267.99 183.07 C257.94 192.68, 244.65 200.63, 230.85 207.01 C217.05 213.4, 201.14 218.64, 185.2 221.37 C169.26 224.1, 151.3 224.51, 135.21 223.37 C119.11 222.23, 103.39 219.62, 88.63 214.52 C73.87 209.41, 58.63 201.26, 46.63 192.72 C34.63 184.18, 24.03 173.94, 16.64 163.27 C9.24 152.61, 4.64 140.67, 2.25 128.71 C-0.14 116.75, -0.5 103.33, 2.32 91.53 C5.13 79.74, 11.21 68.45, 19.14 57.92 C27.08 47.4, 35.8 37.04, 49.92 28.38 C64.03 19.72, 92.61 9.85, 103.83 5.94 C115.06 2.03, 116.29 3.41, 117.27 4.94 M93.77 7.94 C107.02 1.86, 123.52 1.68, 139.69 1.04 C155.85 0.4, 175.12 0.78, 190.76 4.08 C206.41 7.38, 220.48 14.13, 233.55 20.83 C246.62 27.54, 259.52 34.69, 269.18 44.3 C278.84 53.92, 286.43 66.91, 291.52 78.53 C296.62 90.14, 299.8 102.15, 299.75 114 C299.7 125.85, 296.56 138.08, 291.23 149.64 C285.9 161.2, 278.29 173.78, 267.77 183.35 C257.26 192.92, 242.28 200.76, 228.14 207.06 C214 213.37, 198.49 218.45, 182.92 221.2 C167.35 223.95, 150.74 224.65, 134.71 223.56 C118.67 222.47, 101.36 219.87, 86.72 214.66 C72.08 209.44, 58.77 200.97, 46.87 192.28 C34.97 183.59, 23.03 173.21, 15.34 162.52 C7.65 151.83, 2.97 140.17, 0.73 128.15 C-1.52 116.12, -1.06 102.05, 1.87 90.35 C4.8 78.64, 10.21 68.32, 18.29 57.93 C26.37 47.54, 38.05 36.47, 50.35 28.01 C62.65 19.56, 84.86 9.91, 92.1 7.19 C99.34 4.47, 92.74 9.76, 93.8 11.7" stroke="var(--fonte)" stroke-width="2" fill="none"></path></g><g transform="translate(10 138.3333333333332) rotate(0 83.79166412353516 12.5)"><text x="83.79166412353516" y="17.52" font-family="Virgil, Segoe UI Emoji" font-size="20px" fill="var(--fonte)" text-anchor="middle" style="white-space: pre;" direction="ltr" dominant-baseline="alphabetic">    1. Menoridade</text></g><g stroke-linecap="round" transform="translate(138.17726967551494 103.96969696969683) rotate(0 232.5454545454545 131.5)"><path d="M130.57 13.6 C147.7 6.65, 172.42 3.93, 194 1.8 C215.58 -0.33, 238.4 -0.5, 260.05 0.83 C281.7 2.15, 303.99 4.99, 323.92 9.73 C343.85 14.48, 362.81 21.23, 379.62 29.29 C396.42 37.36, 412.3 47.69, 424.76 58.13 C437.21 68.58, 447.56 80.34, 454.35 91.95 C461.14 103.57, 465.06 115.57, 465.5 127.82 C465.95 140.07, 462.62 153.5, 457.01 165.46 C451.39 177.43, 443.25 188.97, 431.82 199.62 C420.4 210.27, 404.56 220.89, 388.44 229.36 C372.32 237.84, 354.69 245.25, 335.11 250.45 C315.53 255.64, 292.47 258.7, 270.97 260.55 C249.47 262.4, 227.51 262.86, 206.1 261.55 C184.69 260.23, 162.85 257.49, 142.52 252.65 C122.19 247.82, 101.26 240.25, 84.14 232.53 C67.01 224.81, 51.93 216.47, 39.76 206.32 C27.59 196.17, 17.75 183.44, 11.12 171.61 C4.49 159.79, 0.44 147.67, -0.01 135.35 C-0.47 123.04, 2.73 109.78, 8.39 97.72 C14.04 85.66, 22.61 73.37, 33.92 62.97 C45.23 52.56, 57.21 44.23, 76.25 35.29 C95.29 26.35, 133.11 13.88, 148.18 9.33 C163.24 4.77, 165.21 5.94, 166.65 7.97 M183.35 3.75 C202.92 -0.7, 228.09 -1.34, 249.94 -0.44 C271.8 0.46, 294.18 4.59, 314.46 9.15 C334.75 13.71, 354.1 19.55, 371.67 26.91 C389.23 34.27, 406.9 43.61, 419.85 53.31 C432.8 63.01, 441.75 73.64, 449.37 85.11 C456.99 96.58, 463.94 109.54, 465.56 122.12 C467.19 134.7, 463.75 148.61, 459.13 160.59 C454.51 172.56, 448.25 183.34, 437.84 193.97 C427.43 204.6, 412.43 215.31, 396.67 224.36 C380.91 233.4, 362.23 242.5, 343.26 248.26 C324.28 254.03, 303.95 256.63, 282.81 258.96 C261.66 261.29, 238.57 262.96, 216.37 262.22 C194.16 261.48, 169.99 258.95, 149.58 254.52 C129.16 250.09, 111.27 242.94, 93.87 235.65 C76.46 228.36, 58.28 220.74, 45.16 210.8 C32.05 200.86, 22.5 187.63, 15.18 176.03 C7.85 164.42, 2.81 153.3, 1.21 141.19 C-0.39 129.08, 0.83 115.28, 5.59 103.37 C10.35 91.45, 19.53 80.3, 29.74 69.7 C39.95 59.09, 51.78 48.63, 66.84 39.76 C81.9 30.88, 100.63 22.51, 120.11 16.45 C139.58 10.39, 173.02 5.12, 183.71 3.39 C194.39 1.67, 183.48 3.83, 184.21 6.1" stroke="var(--fonte)" stroke-width="2" fill="none"></path></g><g transform="translate(103.17726967551494 94.96969696969683) rotate(0 80.53333282470703 12.5)"><text x="0" y="17.52" font-family="Virgil, Segoe UI Emoji" font-size="20px" fill="var(--fonte)" text-anchor="start" style="white-space: pre;" direction="ltr" dominant-baseline="alphabetic">Isentos de pena</text></g><g transform="translate(231.17726967551494 138.273447891947) rotate(0 44.11136211048478 21.848124538874913)"><text x="0" y="15.311165676843544" font-family="Virgil, Segoe UI Emoji" font-size="17.478499631099936px" fill="var(--fonte)" text-anchor="start" style="white-space: pre;" direction="ltr" dominant-baseline="alphabetic">1. Doentes</text><text x="0" y="37.159290215718464" font-family="Virgil, Segoe UI Emoji" font-size="17.478499631099936px" fill="var(--fonte)" text-anchor="start" style="white-space: pre;" direction="ltr" dominant-baseline="alphabetic">Mentais</text></g><g transform="translate(343.17726967551494 122.96969696969683) rotate(0 83.74166870117188 12.5)"><text x="0" y="17.52" font-family="Virgil, Segoe UI Emoji" font-size="20px" fill="var(--fonte)" text-anchor="start" style="white-space: pre;" direction="ltr" dominant-baseline="alphabetic">Redução de pena</text></g><g transform="translate(372.0926898773347 232.13636363636346) rotate(0 55.53333282470703 11.220472440944889)"><text x="0" y="15.726614173228352" font-family="Virgil, Segoe UI Emoji" font-size="17.952755905511815px" fill="var(--fonte)" text-anchor="start" style="white-space: pre;" direction="ltr" dominant-baseline="alphabetic">1. Neuróticos</text></g><g transform="translate(360.5356032631614 273.0418754473871) rotate(0 61.79999923706055 11.220472440944889)"><text x="0" y="15.726614173228352" font-family="Virgil, Segoe UI Emoji" font-size="17.952755905511815px" fill="var(--fonte)" text-anchor="start" style="white-space: pre;" direction="ltr" dominant-baseline="alphabetic">3. Psicopatas</text></g><g transform="translate(397.32379360922585 304.69541875447374) rotate(0 54.54999923706055 11.220472440944889)"><text x="0" y="15.726614173228352" font-family="Virgil, Segoe UI Emoji" font-size="17.952755905511815px" fill="var(--fonte)" text-anchor="start" style="white-space: pre;" direction="ltr" dominant-baseline="alphabetic">4. Epiléticos</text></g><g transform="translate(445.18166694013064 251.34108804581228) rotate(0 49.650001525878906 11.220472440944889)"><text x="0" y="15.726614173228345" font-family="Virgil, Segoe UI Emoji" font-size="17.95275590551181px" fill="var(--fonte)" text-anchor="start" style="white-space: pre;" direction="ltr" dominant-baseline="alphabetic">2. Pródigos</text></g><g transform="translate(73.90045528312908 346.21858959007074) rotate(358.47849037308447 55.90833282470703 12.5)"><text x="0" y="17.52" font-family="Virgil, Segoe UI Emoji" font-size="20px" fill="var(--fonte)" text-anchor="start" style="white-space: pre;" direction="ltr" dominant-baseline="alphabetic">Atenuantes</text></g><g transform="translate(88.58538395509754 387.5277544755141) rotate(359.7373680718044 81.4000015258789 11.558569850365814)"><text x="0" y="16.200491502272747" font-family="Virgil, Segoe UI Emoji" font-size="18.493711760585327px" fill="var(--fonte)" text-anchor="start" style="white-space: pre;" direction="ltr" dominant-baseline="alphabetic">1. Violenta emoção</text></g><g transform="translate(267.8212090694542 398.00314906267425) rotate(0 51 11.767364862602165)"><text x="0" y="16.49313859142319" font-family="Virgil, Segoe UI Emoji" font-size="18.827783780163458px" fill="var(--fonte)" text-anchor="start" style="white-space: pre;" direction="ltr" dominant-baseline="alphabetic">2. Idades*</text></g><g transform="translate(127.8212090694542 422.68871677670546) rotate(0 97.68333435058594 10.92458100558656)"><text x="0" y="15.311892737430083" font-family="Virgil, Segoe UI Emoji" font-size="17.47932960893845px" fill="var(--fonte)" text-anchor="start" style="white-space: pre;" direction="ltr" dominant-baseline="alphabetic">5. Valor social e moral</text></g><g transform="translate(210.8212090694542 447.5378787878786) rotate(0 60.91666793823242 12.5)"><text x="0" y="17.52" font-family="Virgil, Segoe UI Emoji" font-size="20px" fill="var(--fonte)" text-anchor="start" style="white-space: pre;" direction="ltr" dominant-baseline="alphabetic">6. Confissão</text></g><g transform="translate(339.8212090694542 452.5378787878786) rotate(0 50.70833206176758 11.59786663554354)"><text x="0" y="16.255569876377812" font-family="Virgil, Segoe UI Emoji" font-size="18.55658661686965px" fill="var(--fonte)" text-anchor="start" style="white-space: pre;" direction="ltr" dominant-baseline="alphabetic">7. Multidão</text></g><g transform="translate(292.8212090694542 475.5378787878786) rotate(0 51.266666412353516 12.5)"><text x="0" y="17.52" font-family="Virgil, Segoe UI Emoji" font-size="20px" fill="var(--fonte)" text-anchor="start" style="white-space: pre;" direction="ltr" dominant-baseline="alphabetic">8. Coação</text></g><g transform="translate(166.41287624474717 213.53787878787864) rotate(0 63.40833282470703 20.478522954465603)"><text x="63.40833282470703" y="14.351348886489493" font-family="Virgil, Segoe UI Emoji" font-size="16.38281836357248px" fill="var(--fonte)" text-anchor="middle" style="white-space: pre;" direction="ltr" dominant-baseline="alphabetic">3. Des. mental </text><text x="63.40833282470703" y="34.82987184095509" font-family="Virgil, Segoe UI Emoji" font-size="16.38281836357248px" fill="var(--fonte)" text-anchor="middle" style="white-space: pre;" direction="ltr" dominant-baseline="alphabetic">incompleto</text></g><g transform="translate(154.48787319298935 260.8794628200852) rotate(0 58.333335876464844 10.82920798389668)"><text x="58.33333587646484" y="15.178217910229598" font-family="Virgil, Segoe UI Emoji" font-size="17.326732774234703px" fill="var(--fonte)" text-anchor="middle" style="white-space: pre;" direction="ltr" dominant-baseline="alphabetic">4. Embriaguez</text></g><g stroke-linecap="round" transform="translate(43.07351532834849 351.9815259400975) rotate(15.859366266605715 205.91133336352178 68.5403413768764)"><path d="M239.94 0.41 C260.21 0.56, 282.52 4.35, 301.53 7.88 C320.54 11.4, 339.25 16.45, 354 21.56 C368.75 26.68, 380.77 32.43, 390.01 38.57 C399.26 44.7, 406.26 51.45, 409.47 58.37 C412.68 65.29, 412.87 73.02, 409.29 80.09 C405.71 87.16, 398.02 94.68, 387.98 100.79 C377.94 106.9, 364.18 111.92, 349.05 116.76 C333.92 121.59, 316.15 126.51, 297.2 129.8 C278.25 133.09, 256.47 135.39, 235.38 136.5 C214.29 137.6, 191.38 137.63, 170.68 136.44 C149.97 135.25, 129.66 132.55, 111.15 129.35 C92.63 126.14, 74.72 122.22, 59.59 117.19 C44.46 112.17, 30.08 105.76, 20.37 99.2 C10.67 92.64, 4.26 84.75, 1.35 77.85 C-1.56 70.94, -0.89 64.46, 2.91 57.76 C6.72 51.05, 14.26 44.07, 24.19 37.63 C34.13 31.19, 47.55 24.26, 62.5 19.1 C77.45 13.94, 94.82 9.75, 113.91 6.66 C133 3.58, 154.53 1.45, 177.04 0.59 C199.55 -0.28, 235.47 0.88, 248.97 1.47 C262.47 2.05, 258.6 2.98, 258.07 4.12 M289.87 4.68 C309.92 6.44, 328.73 14.03, 344.25 18.82 C359.76 23.62, 372.23 27.41, 382.96 33.44 C393.69 39.46, 403.76 47.87, 408.64 54.96 C413.51 62.05, 414.85 68.97, 412.23 75.98 C409.61 82.99, 401.92 90.71, 392.92 97.03 C383.93 103.35, 371.97 108.83, 358.25 113.91 C344.54 118.98, 328.66 123.64, 310.64 127.49 C292.63 131.34, 271.15 135.3, 250.17 137.02 C229.19 138.73, 205.83 138.56, 184.75 137.81 C163.67 137.05, 142.87 135.52, 123.7 132.47 C104.53 129.42, 85.76 124.19, 69.74 119.52 C53.72 114.84, 38.37 110.65, 27.58 104.41 C16.79 98.16, 9.49 88.99, 5 82.06 C0.5 75.12, -1.44 69.84, 0.61 62.79 C2.66 55.75, 8.52 46.26, 17.3 39.76 C26.08 33.27, 39.35 29.13, 53.3 23.84 C67.25 18.55, 82.81 11.6, 101 8.03 C119.19 4.46, 141.37 3.48, 162.44 2.42 C183.51 1.36, 206.28 1.23, 227.4 1.66 C248.51 2.08, 279.06 4.17, 289.12 4.96 C299.19 5.75, 289.13 5.24, 287.79 6.38" stroke="var(--fonte)" stroke-width="2" fill="none"></path></g></svg>